<svg width="302" height="312" viewBox="0 0 302 312" fill="none" xmlns="http://www.w3.org/2000/svg">
<rect x="0.5" y="0.5" width="301" height="311" rx="150.5" fill="black"/>
<rect x="0.5" y="0.5" width="301" height="311" rx="150.5" stroke="#1C1C1C"/>
<path opacity="0.1" d="M151.002 69.875C153.074 69.875 154.754 71.5548 154.754 73.627V149.989L205.088 174.642C206.948 175.553 207.718 177.8 206.807 179.661C206.195 180.909 204.984 181.665 203.694 181.755L203.436 181.764C202.879 181.764 202.316 181.64 201.787 181.381L149.352 155.7C148.065 155.07 147.25 153.763 147.25 152.331V73.627C147.25 71.5549 148.93 69.8751 151.002 69.875Z" fill="white" stroke="white" stroke-width="2"/>
<path d="M22.6532 182.269C16.8066 157.633 18.2994 131.073 27.1326 106.87C35.8919 82.6465 51.9673 60.8819 72.9709 45.2147C89.7394 32.6483 109.586 23.9795 130.489 20.2269C135.713 19.285 141 18.6451 146.316 18.3131C148.792 18.1523 151.2 18.9887 153.012 20.6827C154.824 22.3743 155.892 24.7849 155.979 27.3397C156.066 29.8946 155.164 32.372 153.471 34.1827C151.778 35.996 149.432 36.9949 146.951 37.0025C142.347 37.0076 137.736 37.2795 133.146 37.8196C114.785 39.9659 96.8037 46.478 81.1238 56.795C61.4954 69.646 45.5658 88.4779 36.0787 110.421C26.5291 132.329 23.4725 157.265 27.6381 181.25C30.9266 200.438 38.7834 218.973 50.503 234.87C53.4296 238.845 56.5919 242.658 59.9714 246.281C60.0196 246.333 60.0458 246.403 60.0444 246.475C60.0429 246.547 60.014 246.615 59.9639 246.664C59.9136 246.714 59.8449 246.742 59.7731 246.743C59.7016 246.744 59.6322 246.717 59.581 246.669C55.9717 243.243 52.5555 239.603 49.3562 235.769C36.5468 220.445 27.2856 201.988 22.6532 182.269Z" fill="#1363A9"/>
<path d="M22.6532 182.269C16.8066 157.633 18.2994 131.073 27.1326 106.87C35.8919 82.6465 51.9673 60.8819 72.9709 45.2147C89.7394 32.6483 109.586 23.9795 130.489 20.2269C135.713 19.285 141 18.6451 146.316 18.3131C148.792 18.1523 151.2 18.9887 153.012 20.6827C154.824 22.3743 155.892 24.7849 155.979 27.3397C156.066 29.8946 155.164 32.372 153.471 34.1827C151.778 35.996 149.432 36.9949 146.951 37.0025C142.347 37.0076 137.736 37.2795 133.146 37.8196C114.785 39.9659 96.8037 46.478 81.1238 56.795C61.4954 69.646 45.5658 88.4779 36.0787 110.421C26.5291 132.329 23.4725 157.265 27.6381 181.25C30.9266 200.438 38.7834 218.973 50.503 234.87C53.4296 238.845 56.5919 242.658 59.9714 246.281C60.0196 246.333 60.0458 246.403 60.0444 246.475C60.0429 246.547 60.014 246.615 59.9639 246.664C59.9136 246.714 59.8449 246.742 59.7731 246.743C59.7016 246.744 59.6322 246.717 59.581 246.669C55.9717 243.243 52.5555 239.603 49.3562 235.769C36.5468 220.445 27.2856 201.988 22.6532 182.269Z" fill="url(#paint0_linear_122_4210)" fill-opacity="0.3"/>
<defs>
<linearGradient id="paint0_linear_122_4210" x1="150.997" y1="51.0019" x2="9.49732" y2="156.002" gradientUnits="userSpaceOnUse">
<stop stop-color="white"/>
<stop offset="1" stop-color="white" stop-opacity="0"/>
</linearGradient>
</defs>
</svg>
