<svg width="126" height="63" viewBox="0 0 126 63" fill="none" xmlns="http://www.w3.org/2000/svg">
<path d="M0 20C0 8.9543 8.9543 0 20 0H76C88.1503 0 98 9.84974 98 22C98 34.1503 88.1503 44 76 44H10C4.47715 44 0 39.5228 0 34V20Z" fill="black"/>
<path d="M20 0.5H76C87.8741 0.5 97.5 10.1259 97.5 22C97.5 33.8741 87.8741 43.5 76 43.5H10C4.7533 43.5 0.5 39.2467 0.5 34V20C0.5 9.23045 9.23045 0.5 20 0.5Z" stroke="white" stroke-opacity="0.22"/>
<rect opacity="0.1" x="12.5" y="12" width="73" height="20" rx="10" fill="white"/>
<path d="M126 39C126 27.9543 117.046 19 106 19H50C37.8497 19 28 28.8497 28 41C28 53.1503 37.8497 63 50 63H116C121.523 63 126 58.5228 126 53V39Z" fill="black"/>
<path d="M106 19.5H50C38.1259 19.5 28.5 29.1259 28.5 41C28.5 52.8741 38.1259 62.5 50 62.5H116C121.247 62.5 125.5 58.2467 125.5 53V39C125.5 28.2304 116.77 19.5 106 19.5Z" stroke="white" stroke-opacity="0.22"/>
<path fill-rule="evenodd" clip-rule="evenodd" d="M82.833 50.7507H71.1663C69.8772 50.7507 68.833 49.7811 68.833 48.584V41.0007C68.833 39.8036 69.8772 38.834 71.1663 38.834H82.833C84.1222 38.834 85.1663 39.8036 85.1663 41.0007V48.584C85.1663 49.7811 84.1222 50.7507 82.833 50.7507Z" fill="white" stroke="white" stroke-width="1.5" stroke-linecap="round" stroke-linejoin="round"/>
<path d="M72.333 38.8333V35.5833V35.5833C72.333 33.1902 74.4225 31.25 76.9997 31.25V31.25C79.5768 31.25 81.6663 33.1902 81.6663 35.5833V35.5833V38.8333" stroke="white" stroke-width="3" stroke-linecap="round" stroke-linejoin="round"/>
</svg>
