<svg width="745" height="1169" viewBox="0 0 745 1169" fill="none" xmlns="http://www.w3.org/2000/svg">
<g opacity="0.3">
<g filter="url(#filter0_d_122_651)">
<path d="M502.808 820.452C502.915 820.425 503.013 820.369 503.091 820.291C503.169 820.213 503.225 820.115 503.252 820.008L503.741 818.112C503.75 818.08 503.77 818.052 503.797 818.031C503.824 818.011 503.856 818 503.89 818C503.923 818 503.956 818.011 503.983 818.031C504.01 818.052 504.029 818.08 504.039 818.112L504.528 820.008C504.555 820.115 504.611 820.213 504.689 820.291C504.767 820.369 504.865 820.425 504.972 820.452L506.868 820.941C506.9 820.951 506.929 820.97 506.949 820.997C506.969 821.024 506.98 821.057 506.98 821.09C506.98 821.124 506.969 821.157 506.949 821.184C506.929 821.21 506.9 821.23 506.868 821.239L504.972 821.728C504.865 821.755 504.767 821.811 504.689 821.889C504.611 821.967 504.555 822.065 504.527 822.172L504.039 824.068C504.03 824.1 504.01 824.129 503.983 824.15C503.957 824.17 503.924 824.181 503.89 824.181C503.856 824.181 503.823 824.17 503.796 824.15C503.769 824.129 503.75 824.1 503.741 824.068L503.252 822.172C503.225 822.065 503.169 821.967 503.091 821.889C503.013 821.811 502.915 821.755 502.808 821.728L500.912 821.239C500.88 821.23 500.851 821.21 500.831 821.183C500.81 821.156 500.799 821.124 500.799 821.09C500.799 821.056 500.81 821.023 500.831 820.997C500.851 820.97 500.88 820.95 500.912 820.941L502.808 820.452Z" fill="white"/>
<path d="M502.808 820.452C502.915 820.425 503.013 820.369 503.091 820.291C503.169 820.213 503.225 820.115 503.252 820.008L503.741 818.112C503.75 818.08 503.77 818.052 503.797 818.031C503.824 818.011 503.856 818 503.89 818C503.923 818 503.956 818.011 503.983 818.031C504.01 818.052 504.029 818.08 504.039 818.112L504.528 820.008C504.555 820.115 504.611 820.213 504.689 820.291C504.767 820.369 504.865 820.425 504.972 820.452L506.868 820.941C506.9 820.951 506.929 820.97 506.949 820.997C506.969 821.024 506.98 821.057 506.98 821.09C506.98 821.124 506.969 821.157 506.949 821.184C506.929 821.21 506.9 821.23 506.868 821.239L504.972 821.728C504.865 821.755 504.767 821.811 504.689 821.889C504.611 821.967 504.555 822.065 504.527 822.172L504.039 824.068C504.03 824.1 504.01 824.129 503.983 824.15C503.957 824.17 503.924 824.181 503.89 824.181C503.856 824.181 503.823 824.17 503.796 824.15C503.769 824.129 503.75 824.1 503.741 824.068L503.252 822.172C503.225 822.065 503.169 821.967 503.091 821.889C503.013 821.811 502.915 821.755 502.808 821.728L500.912 821.239C500.88 821.23 500.851 821.21 500.831 821.183C500.81 821.156 500.799 821.124 500.799 821.09C500.799 821.056 500.81 821.023 500.831 820.997C500.851 820.97 500.88 820.95 500.912 820.941L502.808 820.452Z" stroke="white" stroke-width="0.898407" stroke-linecap="round" stroke-linejoin="round"/>
</g>
<g filter="url(#filter1_d_122_651)">
<path d="M716.824 -7.74625C716.931 -7.77389 717.029 -7.82974 717.107 -7.90798C717.186 -7.98623 717.241 -8.08401 717.269 -8.19115L717.759 -10.0906C717.768 -10.123 717.788 -10.1515 717.814 -10.1718C717.841 -10.1921 717.874 -10.2031 717.908 -10.2031C717.941 -10.2031 717.974 -10.1921 718.001 -10.1718C718.028 -10.1515 718.047 -10.123 718.057 -10.0906L718.547 -8.19115C718.574 -8.08405 718.63 -7.98629 718.708 -7.90805C718.787 -7.82981 718.884 -7.77394 718.991 -7.74625L720.891 -7.25645C720.923 -7.24735 720.952 -7.22785 720.972 -7.20093C720.993 -7.17402 721.004 -7.14116 721.004 -7.10738C721.004 -7.07359 720.993 -7.04073 720.972 -7.01382C720.952 -6.9869 720.923 -6.9674 720.891 -6.9583L718.991 -6.46881C718.884 -6.44117 718.786 -6.38532 718.708 -6.30708C718.63 -6.22883 718.574 -6.13105 718.546 -6.02391L718.057 -4.12447C718.048 -4.09181 718.029 -4.063 718.002 -4.04247C717.975 -4.02195 717.942 -4.01083 717.908 -4.01083C717.874 -4.01083 717.841 -4.02195 717.814 -4.04247C717.787 -4.063 717.768 -4.09181 717.759 -4.12447L717.269 -6.02391C717.241 -6.13105 717.186 -6.22883 717.107 -6.30708C717.029 -6.38532 716.931 -6.44117 716.824 -6.46881L714.925 -6.95861C714.892 -6.96771 714.863 -6.98721 714.843 -7.01413C714.823 -7.04104 714.812 -7.0739 714.812 -7.10769C714.812 -7.14147 714.823 -7.17433 714.843 -7.20124C714.863 -7.22816 714.892 -7.24766 714.925 -7.25676L716.824 -7.74625Z" fill="white"/>
<path d="M716.824 -7.74625C716.931 -7.77389 717.029 -7.82974 717.107 -7.90798C717.186 -7.98623 717.241 -8.08401 717.269 -8.19115L717.759 -10.0906C717.768 -10.123 717.788 -10.1515 717.814 -10.1718C717.841 -10.1921 717.874 -10.2031 717.908 -10.2031C717.941 -10.2031 717.974 -10.1921 718.001 -10.1718C718.028 -10.1515 718.047 -10.123 718.057 -10.0906L718.547 -8.19115C718.574 -8.08405 718.63 -7.98629 718.708 -7.90805C718.787 -7.82981 718.884 -7.77394 718.991 -7.74625L720.891 -7.25645C720.923 -7.24735 720.952 -7.22785 720.972 -7.20093C720.993 -7.17402 721.004 -7.14116 721.004 -7.10738C721.004 -7.07359 720.993 -7.04073 720.972 -7.01382C720.952 -6.9869 720.923 -6.9674 720.891 -6.9583L718.991 -6.46881C718.884 -6.44117 718.786 -6.38532 718.708 -6.30708C718.63 -6.22883 718.574 -6.13105 718.546 -6.02391L718.057 -4.12447C718.048 -4.09181 718.029 -4.063 718.002 -4.04247C717.975 -4.02195 717.942 -4.01083 717.908 -4.01083C717.874 -4.01083 717.841 -4.02195 717.814 -4.04247C717.787 -4.063 717.768 -4.09181 717.759 -4.12447L717.269 -6.02391C717.241 -6.13105 717.186 -6.22883 717.107 -6.30708C717.029 -6.38532 716.931 -6.44117 716.824 -6.46881L714.925 -6.95861C714.892 -6.96771 714.863 -6.98721 714.843 -7.01413C714.823 -7.04104 714.812 -7.0739 714.812 -7.10769C714.812 -7.14147 714.823 -7.17433 714.843 -7.20124C714.863 -7.22816 714.892 -7.24766 714.925 -7.25676L716.824 -7.74625Z" stroke="white" stroke-width="0.900013" stroke-linecap="round" stroke-linejoin="round"/>
</g>
<g filter="url(#filter2_d_122_651)">
<path d="M734.097 1118.96C734.204 1118.93 734.302 1118.88 734.38 1118.8C734.458 1118.72 734.514 1118.62 734.541 1118.52L735.03 1116.62C735.039 1116.59 735.059 1116.56 735.086 1116.54C735.113 1116.52 735.145 1116.51 735.179 1116.51C735.213 1116.51 735.245 1116.52 735.272 1116.54C735.299 1116.56 735.318 1116.59 735.328 1116.62L735.817 1118.52C735.844 1118.62 735.9 1118.72 735.978 1118.8C736.056 1118.88 736.154 1118.93 736.261 1118.96L738.157 1119.45C738.189 1119.46 738.218 1119.48 738.238 1119.5C738.258 1119.53 738.27 1119.56 738.27 1119.6C738.27 1119.63 738.258 1119.66 738.238 1119.69C738.218 1119.72 738.189 1119.74 738.157 1119.75L736.261 1120.24C736.154 1120.26 736.056 1120.32 735.978 1120.4C735.9 1120.48 735.844 1120.57 735.816 1120.68L735.328 1122.58C735.319 1122.61 735.299 1122.64 735.273 1122.66C735.246 1122.68 735.213 1122.69 735.179 1122.69C735.145 1122.69 735.112 1122.68 735.085 1122.66C735.058 1122.64 735.039 1122.61 735.03 1122.58L734.541 1120.68C734.514 1120.57 734.458 1120.48 734.38 1120.4C734.302 1120.32 734.204 1120.26 734.097 1120.24L732.201 1119.75C732.169 1119.74 732.14 1119.72 732.12 1119.69C732.099 1119.66 732.088 1119.63 732.088 1119.6C732.088 1119.56 732.099 1119.53 732.12 1119.5C732.14 1119.48 732.169 1119.46 732.201 1119.45L734.097 1118.96Z" fill="white"/>
<path d="M734.097 1118.96C734.204 1118.93 734.302 1118.88 734.38 1118.8C734.458 1118.72 734.514 1118.62 734.541 1118.52L735.03 1116.62C735.039 1116.59 735.059 1116.56 735.086 1116.54C735.113 1116.52 735.145 1116.51 735.179 1116.51C735.213 1116.51 735.245 1116.52 735.272 1116.54C735.299 1116.56 735.318 1116.59 735.328 1116.62L735.817 1118.52C735.844 1118.62 735.9 1118.72 735.978 1118.8C736.056 1118.88 736.154 1118.93 736.261 1118.96L738.157 1119.45C738.189 1119.46 738.218 1119.48 738.238 1119.5C738.258 1119.53 738.27 1119.56 738.27 1119.6C738.27 1119.63 738.258 1119.66 738.238 1119.69C738.218 1119.72 738.189 1119.74 738.157 1119.75L736.261 1120.24C736.154 1120.26 736.056 1120.32 735.978 1120.4C735.9 1120.48 735.844 1120.57 735.816 1120.68L735.328 1122.58C735.319 1122.61 735.299 1122.64 735.273 1122.66C735.246 1122.68 735.213 1122.69 735.179 1122.69C735.145 1122.69 735.112 1122.68 735.085 1122.66C735.058 1122.64 735.039 1122.61 735.03 1122.58L734.541 1120.68C734.514 1120.57 734.458 1120.48 734.38 1120.4C734.302 1120.32 734.204 1120.26 734.097 1120.24L732.201 1119.75C732.169 1119.74 732.14 1119.72 732.12 1119.69C732.099 1119.66 732.088 1119.63 732.088 1119.6C732.088 1119.56 732.099 1119.53 732.12 1119.5C732.14 1119.48 732.169 1119.46 732.201 1119.45L734.097 1118.96Z" stroke="white" stroke-width="0.898407" stroke-linecap="round" stroke-linejoin="round"/>
</g>
<g filter="url(#filter3_d_122_651)">
<path d="M728.64 409.153C728.777 409.118 728.903 409.046 729.003 408.946C729.103 408.845 729.175 408.72 729.211 408.582L729.839 406.144C729.851 406.103 729.876 406.066 729.91 406.04C729.945 406.014 729.987 406 730.03 406C730.073 406 730.116 406.014 730.15 406.04C730.185 406.066 730.21 406.103 730.221 406.144L730.85 408.582C730.886 408.72 730.957 408.845 731.058 408.946C731.158 409.046 731.284 409.118 731.421 409.153L733.859 409.782C733.901 409.794 733.937 409.819 733.964 409.853C733.99 409.888 734.004 409.93 734.004 409.973C734.004 410.017 733.99 410.059 733.964 410.093C733.937 410.128 733.901 410.153 733.859 410.164L731.421 410.793C731.283 410.828 731.158 410.9 731.058 411C730.957 411.101 730.885 411.226 730.85 411.364L730.222 413.801C730.21 413.843 730.185 413.88 730.151 413.907C730.116 413.933 730.074 413.947 730.03 413.947C729.987 413.947 729.944 413.933 729.91 413.907C729.875 413.88 729.85 413.843 729.839 413.801L729.211 411.364C729.175 411.226 729.103 411.101 729.003 411C728.903 410.9 728.777 410.828 728.64 410.793L726.202 410.164C726.16 410.152 726.123 410.127 726.097 410.093C726.071 410.058 726.057 410.016 726.057 409.973C726.057 409.929 726.071 409.887 726.097 409.853C726.123 409.818 726.16 409.793 726.202 409.781L728.64 409.153Z" fill="white"/>
<path d="M728.64 409.153C728.777 409.118 728.903 409.046 729.003 408.946C729.103 408.845 729.175 408.72 729.211 408.582L729.839 406.144C729.851 406.103 729.876 406.066 729.91 406.04C729.945 406.014 729.987 406 730.03 406C730.073 406 730.116 406.014 730.15 406.04C730.185 406.066 730.21 406.103 730.221 406.144L730.85 408.582C730.886 408.72 730.957 408.845 731.058 408.946C731.158 409.046 731.284 409.118 731.421 409.153L733.859 409.782C733.901 409.794 733.937 409.819 733.964 409.853C733.99 409.888 734.004 409.93 734.004 409.973C734.004 410.017 733.99 410.059 733.964 410.093C733.937 410.128 733.901 410.153 733.859 410.164L731.421 410.793C731.283 410.828 731.158 410.9 731.058 411C730.957 411.101 730.885 411.226 730.85 411.364L730.222 413.801C730.21 413.843 730.185 413.88 730.151 413.907C730.116 413.933 730.074 413.947 730.03 413.947C729.987 413.947 729.944 413.933 729.91 413.907C729.875 413.88 729.85 413.843 729.839 413.801L729.211 411.364C729.175 411.226 729.103 411.101 729.003 411C728.903 410.9 728.777 410.828 728.64 410.793L726.202 410.164C726.16 410.152 726.123 410.127 726.097 410.093C726.071 410.058 726.057 410.016 726.057 409.973C726.057 409.929 726.071 409.887 726.097 409.853C726.123 409.818 726.16 409.793 726.202 409.781L728.64 409.153Z" stroke="white" stroke-width="0.898407" stroke-linecap="round" stroke-linejoin="round"/>
</g>
<g filter="url(#filter4_d_122_651)">
<path d="M547.839 1016.48C547.946 1016.46 548.044 1016.4 548.122 1016.32C548.2 1016.24 548.256 1016.15 548.284 1016.04L548.772 1014.14C548.782 1014.11 548.801 1014.08 548.828 1014.06C548.855 1014.04 548.887 1014.03 548.921 1014.03C548.955 1014.03 548.987 1014.04 549.014 1014.06C549.041 1014.08 549.061 1014.11 549.07 1014.14L549.559 1016.04C549.587 1016.15 549.642 1016.24 549.72 1016.32C549.798 1016.4 549.896 1016.46 550.003 1016.48L551.899 1016.97C551.931 1016.98 551.96 1017 551.98 1017.03C552.001 1017.05 552.012 1017.09 552.012 1017.12C552.012 1017.16 552.001 1017.19 551.98 1017.21C551.96 1017.24 551.931 1017.26 551.899 1017.27L550.003 1017.76C549.896 1017.79 549.798 1017.84 549.72 1017.92C549.642 1018 549.586 1018.1 549.559 1018.2L549.07 1020.1C549.061 1020.13 549.042 1020.16 549.015 1020.18C548.988 1020.2 548.955 1020.21 548.921 1020.21C548.887 1020.21 548.854 1020.2 548.827 1020.18C548.801 1020.16 548.781 1020.13 548.772 1020.1L548.284 1018.2C548.256 1018.1 548.2 1018 548.122 1017.92C548.044 1017.84 547.946 1017.79 547.839 1017.76L545.943 1017.27C545.911 1017.26 545.882 1017.24 545.862 1017.21C545.842 1017.19 545.83 1017.15 545.83 1017.12C545.83 1017.09 545.842 1017.05 545.862 1017.03C545.882 1017 545.911 1016.98 545.943 1016.97L547.839 1016.48Z" fill="white"/>
<path d="M547.839 1016.48C547.946 1016.46 548.044 1016.4 548.122 1016.32C548.2 1016.24 548.256 1016.15 548.284 1016.04L548.772 1014.14C548.782 1014.11 548.801 1014.08 548.828 1014.06C548.855 1014.04 548.887 1014.03 548.921 1014.03C548.955 1014.03 548.987 1014.04 549.014 1014.06C549.041 1014.08 549.061 1014.11 549.07 1014.14L549.559 1016.04C549.587 1016.15 549.642 1016.24 549.72 1016.32C549.798 1016.4 549.896 1016.46 550.003 1016.48L551.899 1016.97C551.931 1016.98 551.96 1017 551.98 1017.03C552.001 1017.05 552.012 1017.09 552.012 1017.12C552.012 1017.16 552.001 1017.19 551.98 1017.21C551.96 1017.24 551.931 1017.26 551.899 1017.27L550.003 1017.76C549.896 1017.79 549.798 1017.84 549.72 1017.92C549.642 1018 549.586 1018.1 549.559 1018.2L549.07 1020.1C549.061 1020.13 549.042 1020.16 549.015 1020.18C548.988 1020.2 548.955 1020.21 548.921 1020.21C548.887 1020.21 548.854 1020.2 548.827 1020.18C548.801 1020.16 548.781 1020.13 548.772 1020.1L548.284 1018.2C548.256 1018.1 548.2 1018 548.122 1017.92C548.044 1017.84 547.946 1017.79 547.839 1017.76L545.943 1017.27C545.911 1017.26 545.882 1017.24 545.862 1017.21C545.842 1017.19 545.83 1017.15 545.83 1017.12C545.83 1017.09 545.842 1017.05 545.862 1017.03C545.882 1017 545.911 1016.98 545.943 1016.97L547.839 1016.48Z" stroke="white" stroke-width="0.898407" stroke-linecap="round" stroke-linejoin="round"/>
</g>
<g filter="url(#filter5_d_122_651)">
<path d="M346.8 934.601C346.907 934.573 347.005 934.518 347.083 934.439C347.161 934.361 347.217 934.264 347.244 934.157L347.733 932.261C347.743 932.228 347.762 932.2 347.789 932.18C347.816 932.159 347.848 932.148 347.882 932.148C347.916 932.148 347.948 932.159 347.975 932.18C348.002 932.2 348.022 932.228 348.031 932.261L348.52 934.157C348.547 934.264 348.603 934.361 348.681 934.439C348.759 934.518 348.857 934.573 348.964 934.601L350.86 935.09C350.892 935.099 350.921 935.118 350.941 935.145C350.962 935.172 350.973 935.205 350.973 935.239C350.973 935.272 350.962 935.305 350.941 935.332C350.921 935.359 350.892 935.378 350.86 935.387L348.964 935.876C348.857 935.904 348.759 935.959 348.681 936.038C348.603 936.116 348.547 936.213 348.52 936.32L348.031 938.216C348.022 938.249 348.003 938.278 347.976 938.298C347.949 938.319 347.916 938.33 347.882 938.33C347.848 938.33 347.815 938.319 347.788 938.298C347.762 938.278 347.742 938.249 347.733 938.216L347.244 936.32C347.217 936.213 347.161 936.116 347.083 936.038C347.005 935.959 346.907 935.904 346.8 935.876L344.904 935.387C344.872 935.378 344.843 935.359 344.823 935.332C344.802 935.305 344.791 935.272 344.791 935.238C344.791 935.205 344.802 935.172 344.823 935.145C344.843 935.118 344.872 935.099 344.904 935.09L346.8 934.601Z" fill="white"/>
<path d="M346.8 934.601C346.907 934.573 347.005 934.518 347.083 934.439C347.161 934.361 347.217 934.264 347.244 934.157L347.733 932.261C347.743 932.228 347.762 932.2 347.789 932.18C347.816 932.159 347.848 932.148 347.882 932.148C347.916 932.148 347.948 932.159 347.975 932.18C348.002 932.2 348.022 932.228 348.031 932.261L348.52 934.157C348.547 934.264 348.603 934.361 348.681 934.439C348.759 934.518 348.857 934.573 348.964 934.601L350.86 935.09C350.892 935.099 350.921 935.118 350.941 935.145C350.962 935.172 350.973 935.205 350.973 935.239C350.973 935.272 350.962 935.305 350.941 935.332C350.921 935.359 350.892 935.378 350.86 935.387L348.964 935.876C348.857 935.904 348.759 935.959 348.681 936.038C348.603 936.116 348.547 936.213 348.52 936.32L348.031 938.216C348.022 938.249 348.003 938.278 347.976 938.298C347.949 938.319 347.916 938.33 347.882 938.33C347.848 938.33 347.815 938.319 347.788 938.298C347.762 938.278 347.742 938.249 347.733 938.216L347.244 936.32C347.217 936.213 347.161 936.116 347.083 936.038C347.005 935.959 346.907 935.904 346.8 935.876L344.904 935.387C344.872 935.378 344.843 935.359 344.823 935.332C344.802 935.305 344.791 935.272 344.791 935.238C344.791 935.205 344.802 935.172 344.823 935.145C344.843 935.118 344.872 935.099 344.904 935.09L346.8 934.601Z" stroke="white" stroke-width="0.898407" stroke-linecap="round" stroke-linejoin="round"/>
</g>
<g opacity="0.4" filter="url(#filter6_d_122_651)">
<path d="M519.074 11.2225C519.181 11.1949 519.279 11.139 519.357 11.0608C519.436 10.9825 519.491 10.8847 519.519 10.7776L520.009 8.87816C520.018 8.84575 520.038 8.81723 520.064 8.79692C520.091 8.77661 520.124 8.76562 520.158 8.76562C520.191 8.76562 520.224 8.77661 520.251 8.79692C520.278 8.81723 520.297 8.84575 520.307 8.87816L520.797 10.7776C520.824 10.8847 520.88 10.9825 520.958 11.0607C521.037 11.1389 521.134 11.1948 521.241 11.2225L523.141 11.7123C523.173 11.7214 523.202 11.7409 523.222 11.7678C523.243 11.7947 523.254 11.8276 523.254 11.8614C523.254 11.8952 523.243 11.928 523.222 11.9549C523.202 11.9818 523.173 12.0013 523.141 12.0105L521.241 12.4999C521.134 12.5276 521.036 12.5834 520.958 12.6617C520.88 12.7399 520.824 12.8377 520.796 12.9448L520.307 14.8443C520.298 14.8769 520.279 14.9057 520.252 14.9263C520.225 14.9468 520.192 14.9579 520.158 14.9579C520.124 14.9579 520.091 14.9468 520.064 14.9263C520.037 14.9057 520.018 14.8769 520.009 14.8443L519.519 12.9448C519.491 12.8377 519.436 12.7399 519.357 12.6617C519.279 12.5834 519.181 12.5276 519.074 12.4999L517.175 12.0101C517.142 12.001 517.113 11.9815 517.093 11.9546C517.073 11.9277 517.062 11.8948 517.062 11.8611C517.062 11.8273 517.073 11.7944 517.093 11.7675C517.113 11.7406 517.142 11.7211 517.175 11.712L519.074 11.2225Z" fill="white"/>
<path d="M519.074 11.2225C519.181 11.1949 519.279 11.139 519.357 11.0608C519.436 10.9825 519.491 10.8847 519.519 10.7776L520.009 8.87816C520.018 8.84575 520.038 8.81723 520.064 8.79692C520.091 8.77661 520.124 8.76562 520.158 8.76562C520.191 8.76562 520.224 8.77661 520.251 8.79692C520.278 8.81723 520.297 8.84575 520.307 8.87816L520.797 10.7776C520.824 10.8847 520.88 10.9825 520.958 11.0607C521.037 11.1389 521.134 11.1948 521.241 11.2225L523.141 11.7123C523.173 11.7214 523.202 11.7409 523.222 11.7678C523.243 11.7947 523.254 11.8276 523.254 11.8614C523.254 11.8952 523.243 11.928 523.222 11.9549C523.202 11.9818 523.173 12.0013 523.141 12.0105L521.241 12.4999C521.134 12.5276 521.036 12.5834 520.958 12.6617C520.88 12.7399 520.824 12.8377 520.796 12.9448L520.307 14.8443C520.298 14.8769 520.279 14.9057 520.252 14.9263C520.225 14.9468 520.192 14.9579 520.158 14.9579C520.124 14.9579 520.091 14.9468 520.064 14.9263C520.037 14.9057 520.018 14.8769 520.009 14.8443L519.519 12.9448C519.491 12.8377 519.436 12.7399 519.357 12.6617C519.279 12.5834 519.181 12.5276 519.074 12.4999L517.175 12.0101C517.142 12.001 517.113 11.9815 517.093 11.9546C517.073 11.9277 517.062 11.8948 517.062 11.8611C517.062 11.8273 517.073 11.7944 517.093 11.7675C517.113 11.7406 517.142 11.7211 517.175 11.712L519.074 11.2225Z" stroke="white" stroke-width="0.900013" stroke-linecap="round" stroke-linejoin="round"/>
</g>
<g filter="url(#filter7_d_122_651)">
<path d="M633.863 349.457C633.97 349.429 634.068 349.373 634.146 349.295C634.225 349.217 634.28 349.119 634.308 349.012L634.798 347.113C634.807 347.08 634.827 347.052 634.853 347.031C634.88 347.011 634.913 347 634.947 347C634.981 347 635.013 347.011 635.04 347.031C635.067 347.052 635.087 347.08 635.096 347.113L635.586 349.012C635.613 349.119 635.669 349.217 635.747 349.295C635.826 349.373 635.923 349.429 636.03 349.457L637.93 349.947C637.962 349.956 637.991 349.975 638.011 350.002C638.032 350.029 638.043 350.062 638.043 350.096C638.043 350.13 638.032 350.162 638.011 350.189C637.991 350.216 637.962 350.236 637.93 350.245L636.03 350.734C635.923 350.762 635.826 350.818 635.747 350.896C635.669 350.974 635.613 351.072 635.586 351.179L635.096 353.079C635.087 353.111 635.068 353.14 635.041 353.161C635.014 353.181 634.981 353.192 634.947 353.192C634.913 353.192 634.88 353.181 634.853 353.161C634.826 353.14 634.807 353.111 634.798 353.079L634.308 351.179C634.28 351.072 634.225 350.974 634.146 350.896C634.068 350.818 633.97 350.762 633.863 350.734L631.964 350.245C631.931 350.235 631.903 350.216 631.882 350.189C631.862 350.162 631.851 350.129 631.851 350.095C631.851 350.062 631.862 350.029 631.882 350.002C631.903 349.975 631.931 349.955 631.964 349.946L633.863 349.457Z" fill="white"/>
<path d="M633.863 349.457C633.97 349.429 634.068 349.373 634.146 349.295C634.225 349.217 634.28 349.119 634.308 349.012L634.798 347.113C634.807 347.08 634.827 347.052 634.853 347.031C634.88 347.011 634.913 347 634.947 347C634.981 347 635.013 347.011 635.04 347.031C635.067 347.052 635.087 347.08 635.096 347.113L635.586 349.012C635.613 349.119 635.669 349.217 635.747 349.295C635.826 349.373 635.923 349.429 636.03 349.457L637.93 349.947C637.962 349.956 637.991 349.975 638.011 350.002C638.032 350.029 638.043 350.062 638.043 350.096C638.043 350.13 638.032 350.162 638.011 350.189C637.991 350.216 637.962 350.236 637.93 350.245L636.03 350.734C635.923 350.762 635.826 350.818 635.747 350.896C635.669 350.974 635.613 351.072 635.586 351.179L635.096 353.079C635.087 353.111 635.068 353.14 635.041 353.161C635.014 353.181 634.981 353.192 634.947 353.192C634.913 353.192 634.88 353.181 634.853 353.161C634.826 353.14 634.807 353.111 634.798 353.079L634.308 351.179C634.28 351.072 634.225 350.974 634.146 350.896C634.068 350.818 633.97 350.762 633.863 350.734L631.964 350.245C631.931 350.235 631.903 350.216 631.882 350.189C631.862 350.162 631.851 350.129 631.851 350.095C631.851 350.062 631.862 350.029 631.882 350.002C631.903 349.975 631.931 349.955 631.964 349.946L633.863 349.457Z" stroke="white" stroke-width="0.900013" stroke-linecap="round" stroke-linejoin="round"/>
</g>
<g filter="url(#filter8_d_122_651)">
<path d="M146.824 480.457C146.931 480.429 147.029 480.373 147.107 480.295C147.186 480.217 147.241 480.119 147.269 480.012L147.759 478.113C147.768 478.08 147.788 478.052 147.814 478.031C147.841 478.011 147.874 478 147.908 478C147.941 478 147.974 478.011 148.001 478.031C148.028 478.052 148.047 478.08 148.057 478.113L148.547 480.012C148.574 480.119 148.63 480.217 148.708 480.295C148.787 480.373 148.884 480.429 148.991 480.457L150.891 480.947C150.923 480.956 150.952 480.975 150.972 481.002C150.993 481.029 151.004 481.062 151.004 481.096C151.004 481.13 150.993 481.162 150.972 481.189C150.952 481.216 150.923 481.236 150.891 481.245L148.991 481.734C148.884 481.762 148.786 481.818 148.708 481.896C148.63 481.974 148.574 482.072 148.546 482.179L148.057 484.079C148.048 484.111 148.029 484.14 148.002 484.161C147.975 484.181 147.942 484.192 147.908 484.192C147.874 484.192 147.841 484.181 147.814 484.161C147.787 484.14 147.768 484.111 147.759 484.079L147.269 482.179C147.241 482.072 147.186 481.974 147.107 481.896C147.029 481.818 146.931 481.762 146.824 481.734L144.925 481.245C144.892 481.235 144.863 481.216 144.843 481.189C144.823 481.162 144.812 481.129 144.812 481.095C144.812 481.062 144.823 481.029 144.843 481.002C144.863 480.975 144.892 480.955 144.925 480.946L146.824 480.457Z" fill="white"/>
<path d="M146.824 480.457C146.931 480.429 147.029 480.373 147.107 480.295C147.186 480.217 147.241 480.119 147.269 480.012L147.759 478.113C147.768 478.08 147.788 478.052 147.814 478.031C147.841 478.011 147.874 478 147.908 478C147.941 478 147.974 478.011 148.001 478.031C148.028 478.052 148.047 478.08 148.057 478.113L148.547 480.012C148.574 480.119 148.63 480.217 148.708 480.295C148.787 480.373 148.884 480.429 148.991 480.457L150.891 480.947C150.923 480.956 150.952 480.975 150.972 481.002C150.993 481.029 151.004 481.062 151.004 481.096C151.004 481.13 150.993 481.162 150.972 481.189C150.952 481.216 150.923 481.236 150.891 481.245L148.991 481.734C148.884 481.762 148.786 481.818 148.708 481.896C148.63 481.974 148.574 482.072 148.546 482.179L148.057 484.079C148.048 484.111 148.029 484.14 148.002 484.161C147.975 484.181 147.942 484.192 147.908 484.192C147.874 484.192 147.841 484.181 147.814 484.161C147.787 484.14 147.768 484.111 147.759 484.079L147.269 482.179C147.241 482.072 147.186 481.974 147.107 481.896C147.029 481.818 146.931 481.762 146.824 481.734L144.925 481.245C144.892 481.235 144.863 481.216 144.843 481.189C144.823 481.162 144.812 481.129 144.812 481.095C144.812 481.062 144.823 481.029 144.843 481.002C144.863 480.975 144.892 480.955 144.925 480.946L146.824 480.457Z" stroke="white" stroke-width="0.900013" stroke-linecap="round" stroke-linejoin="round"/>
</g>
<g filter="url(#filter9_d_122_651)">
<path d="M196.824 888.457C196.931 888.429 197.029 888.373 197.107 888.295C197.186 888.217 197.241 888.119 197.269 888.012L197.759 886.113C197.768 886.08 197.788 886.052 197.814 886.031C197.841 886.011 197.874 886 197.908 886C197.941 886 197.974 886.011 198.001 886.031C198.028 886.052 198.047 886.08 198.057 886.113L198.547 888.012C198.574 888.119 198.63 888.217 198.708 888.295C198.787 888.373 198.884 888.429 198.991 888.457L200.891 888.947C200.923 888.956 200.952 888.975 200.972 889.002C200.993 889.029 201.004 889.062 201.004 889.096C201.004 889.13 200.993 889.162 200.972 889.189C200.952 889.216 200.923 889.236 200.891 889.245L198.991 889.734C198.884 889.762 198.786 889.818 198.708 889.896C198.63 889.974 198.574 890.072 198.546 890.179L198.057 892.079C198.048 892.111 198.029 892.14 198.002 892.161C197.975 892.181 197.942 892.192 197.908 892.192C197.874 892.192 197.841 892.181 197.814 892.161C197.787 892.14 197.768 892.111 197.759 892.079L197.269 890.179C197.241 890.072 197.186 889.974 197.107 889.896C197.029 889.818 196.931 889.762 196.824 889.734L194.925 889.245C194.892 889.235 194.863 889.216 194.843 889.189C194.823 889.162 194.812 889.129 194.812 889.095C194.812 889.062 194.823 889.029 194.843 889.002C194.863 888.975 194.892 888.955 194.925 888.946L196.824 888.457Z" fill="white"/>
<path d="M196.824 888.457C196.931 888.429 197.029 888.373 197.107 888.295C197.186 888.217 197.241 888.119 197.269 888.012L197.759 886.113C197.768 886.08 197.788 886.052 197.814 886.031C197.841 886.011 197.874 886 197.908 886C197.941 886 197.974 886.011 198.001 886.031C198.028 886.052 198.047 886.08 198.057 886.113L198.547 888.012C198.574 888.119 198.63 888.217 198.708 888.295C198.787 888.373 198.884 888.429 198.991 888.457L200.891 888.947C200.923 888.956 200.952 888.975 200.972 889.002C200.993 889.029 201.004 889.062 201.004 889.096C201.004 889.13 200.993 889.162 200.972 889.189C200.952 889.216 200.923 889.236 200.891 889.245L198.991 889.734C198.884 889.762 198.786 889.818 198.708 889.896C198.63 889.974 198.574 890.072 198.546 890.179L198.057 892.079C198.048 892.111 198.029 892.14 198.002 892.161C197.975 892.181 197.942 892.192 197.908 892.192C197.874 892.192 197.841 892.181 197.814 892.161C197.787 892.14 197.768 892.111 197.759 892.079L197.269 890.179C197.241 890.072 197.186 889.974 197.107 889.896C197.029 889.818 196.931 889.762 196.824 889.734L194.925 889.245C194.892 889.235 194.863 889.216 194.843 889.189C194.823 889.162 194.812 889.129 194.812 889.095C194.812 889.062 194.823 889.029 194.843 889.002C194.863 888.975 194.892 888.955 194.925 888.946L196.824 888.457Z" stroke="white" stroke-width="0.900013" stroke-linecap="round" stroke-linejoin="round"/>
</g>
<g filter="url(#filter10_d_122_651)">
<path d="M319.668 406.605C319.775 406.578 319.873 406.522 319.951 406.444C320.029 406.365 320.085 406.268 320.113 406.16L320.603 404.261C320.612 404.229 320.631 404.2 320.658 404.18C320.685 404.159 320.718 404.148 320.752 404.148C320.785 404.148 320.818 404.159 320.845 404.18C320.872 404.2 320.891 404.229 320.9 404.261L321.391 406.16C321.418 406.268 321.474 406.365 321.552 406.444C321.63 406.522 321.728 406.578 321.835 406.605L323.735 407.095C323.767 407.104 323.796 407.124 323.816 407.151C323.837 407.178 323.848 407.21 323.848 407.244C323.848 407.278 323.837 407.311 323.816 407.338C323.796 407.365 323.767 407.384 323.735 407.393L321.835 407.883C321.728 407.91 321.63 407.966 321.552 408.044C321.474 408.123 321.418 408.221 321.39 408.328L320.901 410.227C320.892 410.26 320.872 410.289 320.845 410.309C320.818 410.33 320.785 410.341 320.752 410.341C320.718 410.341 320.685 410.33 320.658 410.309C320.631 410.289 320.611 410.26 320.602 410.227L320.113 408.328C320.085 408.221 320.029 408.123 319.951 408.044C319.873 407.966 319.775 407.91 319.668 407.883L317.768 407.393C317.736 407.384 317.707 407.364 317.687 407.337C317.666 407.311 317.655 407.278 317.655 407.244C317.655 407.21 317.666 407.177 317.687 407.15C317.707 407.123 317.736 407.104 317.768 407.095L319.668 406.605Z" fill="white"/>
<path d="M319.668 406.605C319.775 406.578 319.873 406.522 319.951 406.444C320.029 406.365 320.085 406.268 320.113 406.16L320.603 404.261C320.612 404.229 320.631 404.2 320.658 404.18C320.685 404.159 320.718 404.148 320.752 404.148C320.785 404.148 320.818 404.159 320.845 404.18C320.872 404.2 320.891 404.229 320.9 404.261L321.391 406.16C321.418 406.268 321.474 406.365 321.552 406.444C321.63 406.522 321.728 406.578 321.835 406.605L323.735 407.095C323.767 407.104 323.796 407.124 323.816 407.151C323.837 407.178 323.848 407.21 323.848 407.244C323.848 407.278 323.837 407.311 323.816 407.338C323.796 407.365 323.767 407.384 323.735 407.393L321.835 407.883C321.728 407.91 321.63 407.966 321.552 408.044C321.474 408.123 321.418 408.221 321.39 408.328L320.901 410.227C320.892 410.26 320.872 410.289 320.845 410.309C320.818 410.33 320.785 410.341 320.752 410.341C320.718 410.341 320.685 410.33 320.658 410.309C320.631 410.289 320.611 410.26 320.602 410.227L320.113 408.328C320.085 408.221 320.029 408.123 319.951 408.044C319.873 407.966 319.775 407.91 319.668 407.883L317.768 407.393C317.736 407.384 317.707 407.364 317.687 407.337C317.666 407.311 317.655 407.278 317.655 407.244C317.655 407.21 317.666 407.177 317.687 407.15C317.707 407.123 317.736 407.104 317.768 407.095L319.668 406.605Z" stroke="white" stroke-width="0.900013" stroke-linecap="round" stroke-linejoin="round"/>
</g>
<g opacity="0.4" filter="url(#filter11_d_122_651)">
<path d="M417.863 549.035C417.97 549.007 418.068 548.952 418.146 548.873C418.225 548.795 418.28 548.697 418.308 548.59L418.798 546.691C418.807 546.658 418.827 546.63 418.853 546.609C418.88 546.589 418.913 546.578 418.947 546.578C418.981 546.578 419.013 546.589 419.04 546.609C419.067 546.63 419.087 546.658 419.096 546.691L419.586 548.59C419.613 548.697 419.669 548.795 419.747 548.873C419.826 548.951 419.923 549.007 420.03 549.035L421.93 549.525C421.962 549.534 421.991 549.553 422.011 549.58C422.032 549.607 422.043 549.64 422.043 549.674C422.043 549.708 422.032 549.741 422.011 549.767C421.991 549.794 421.962 549.814 421.93 549.823L420.03 550.312C419.923 550.34 419.826 550.396 419.747 550.474C419.669 550.552 419.613 550.65 419.586 550.757L419.096 552.657C419.087 552.689 419.068 552.718 419.041 552.739C419.014 552.759 418.981 552.77 418.947 552.77C418.913 552.77 418.88 552.759 418.853 552.739C418.826 552.718 418.807 552.689 418.798 552.657L418.308 550.757C418.28 550.65 418.225 550.552 418.146 550.474C418.068 550.396 417.97 550.34 417.863 550.312L415.964 549.823C415.931 549.814 415.903 549.794 415.882 549.767C415.862 549.74 415.851 549.707 415.851 549.674C415.851 549.64 415.862 549.607 415.882 549.58C415.903 549.553 415.931 549.534 415.964 549.524L417.863 549.035Z" fill="white"/>
<path d="M417.863 549.035C417.97 549.007 418.068 548.952 418.146 548.873C418.225 548.795 418.28 548.697 418.308 548.59L418.798 546.691C418.807 546.658 418.827 546.63 418.853 546.609C418.88 546.589 418.913 546.578 418.947 546.578C418.981 546.578 419.013 546.589 419.04 546.609C419.067 546.63 419.087 546.658 419.096 546.691L419.586 548.59C419.613 548.697 419.669 548.795 419.747 548.873C419.826 548.951 419.923 549.007 420.03 549.035L421.93 549.525C421.962 549.534 421.991 549.553 422.011 549.58C422.032 549.607 422.043 549.64 422.043 549.674C422.043 549.708 422.032 549.741 422.011 549.767C421.991 549.794 421.962 549.814 421.93 549.823L420.03 550.312C419.923 550.34 419.826 550.396 419.747 550.474C419.669 550.552 419.613 550.65 419.586 550.757L419.096 552.657C419.087 552.689 419.068 552.718 419.041 552.739C419.014 552.759 418.981 552.77 418.947 552.77C418.913 552.77 418.88 552.759 418.853 552.739C418.826 552.718 418.807 552.689 418.798 552.657L418.308 550.757C418.28 550.65 418.225 550.552 418.146 550.474C418.068 550.396 417.97 550.34 417.863 550.312L415.964 549.823C415.931 549.814 415.903 549.794 415.882 549.767C415.862 549.74 415.851 549.707 415.851 549.674C415.851 549.64 415.862 549.607 415.882 549.58C415.903 549.553 415.931 549.534 415.964 549.524L417.863 549.035Z" stroke="white" stroke-width="0.900013" stroke-linecap="round" stroke-linejoin="round"/>
</g>
<g opacity="0.4" filter="url(#filter12_d_122_651)">
<path d="M69.8632 660.035C69.9703 660.007 70.0681 659.952 70.1464 659.873C70.2246 659.795 70.2805 659.697 70.3081 659.59L70.7979 657.691C70.8071 657.658 70.8266 657.63 70.8535 657.609C70.8804 657.589 70.9131 657.578 70.9468 657.578C70.9805 657.578 71.0133 657.589 71.0402 657.609C71.067 657.63 71.0865 657.658 71.0957 657.691L71.5858 659.59C71.6135 659.697 71.6693 659.795 71.7475 659.873C71.8256 659.951 71.9234 660.007 72.0304 660.035L73.9299 660.525C73.9624 660.534 73.9911 660.553 74.0115 660.58C74.0319 660.607 74.043 660.64 74.043 660.674C74.043 660.708 74.0319 660.741 74.0115 660.767C73.9911 660.794 73.9624 660.814 73.9299 660.823L72.0304 661.312C71.9233 661.34 71.8255 661.396 71.7473 661.474C71.669 661.552 71.6132 661.65 71.5855 661.757L71.0961 663.657C71.087 663.689 71.0676 663.718 71.0406 663.739C71.0137 663.759 70.9807 663.77 70.9468 663.77C70.9129 663.77 70.88 663.759 70.853 663.739C70.8261 663.718 70.8066 663.689 70.7976 663.657L70.3081 661.757C70.2805 661.65 70.2246 661.552 70.1464 661.474C70.0681 661.396 69.9703 661.34 69.8632 661.312L67.9638 660.823C67.9312 660.814 67.9026 660.794 67.8821 660.767C67.8617 660.74 67.8507 660.707 67.8507 660.674C67.8507 660.64 67.8617 660.607 67.8821 660.58C67.9026 660.553 67.9312 660.534 67.9638 660.524L69.8632 660.035Z" fill="white"/>
<path d="M69.8632 660.035C69.9703 660.007 70.0681 659.952 70.1464 659.873C70.2246 659.795 70.2805 659.697 70.3081 659.59L70.7979 657.691C70.8071 657.658 70.8266 657.63 70.8535 657.609C70.8804 657.589 70.9131 657.578 70.9468 657.578C70.9805 657.578 71.0133 657.589 71.0402 657.609C71.067 657.63 71.0865 657.658 71.0957 657.691L71.5858 659.59C71.6135 659.697 71.6693 659.795 71.7475 659.873C71.8256 659.951 71.9234 660.007 72.0304 660.035L73.9299 660.525C73.9624 660.534 73.9911 660.553 74.0115 660.58C74.0319 660.607 74.043 660.64 74.043 660.674C74.043 660.708 74.0319 660.741 74.0115 660.767C73.9911 660.794 73.9624 660.814 73.9299 660.823L72.0304 661.312C71.9233 661.34 71.8255 661.396 71.7473 661.474C71.669 661.552 71.6132 661.65 71.5855 661.757L71.0961 663.657C71.087 663.689 71.0676 663.718 71.0406 663.739C71.0137 663.759 70.9807 663.77 70.9468 663.77C70.9129 663.77 70.88 663.759 70.853 663.739C70.8261 663.718 70.8066 663.689 70.7976 663.657L70.3081 661.757C70.2805 661.65 70.2246 661.552 70.1464 661.474C70.0681 661.396 69.9703 661.34 69.8632 661.312L67.9638 660.823C67.9312 660.814 67.9026 660.794 67.8821 660.767C67.8617 660.74 67.8507 660.707 67.8507 660.674C67.8507 660.64 67.8617 660.607 67.8821 660.58C67.9026 660.553 67.9312 660.534 67.9638 660.524L69.8632 660.035Z" stroke="white" stroke-width="0.900013" stroke-linecap="round" stroke-linejoin="round"/>
</g>
<g opacity="0.4" filter="url(#filter13_d_122_651)">
<path d="M119.863 1068.04C119.97 1068.01 120.068 1067.95 120.146 1067.87C120.225 1067.8 120.28 1067.7 120.308 1067.59L120.798 1065.69C120.807 1065.66 120.827 1065.63 120.853 1065.61C120.88 1065.59 120.913 1065.58 120.947 1065.58C120.981 1065.58 121.013 1065.59 121.04 1065.61C121.067 1065.63 121.087 1065.66 121.096 1065.69L121.586 1067.59C121.613 1067.7 121.669 1067.79 121.747 1067.87C121.826 1067.95 121.923 1068.01 122.03 1068.04L123.93 1068.52C123.962 1068.53 123.991 1068.55 124.011 1068.58C124.032 1068.61 124.043 1068.64 124.043 1068.67C124.043 1068.71 124.032 1068.74 124.011 1068.77C123.991 1068.79 123.962 1068.81 123.93 1068.82L122.03 1069.31C121.923 1069.34 121.826 1069.4 121.747 1069.47C121.669 1069.55 121.613 1069.65 121.586 1069.76L121.096 1071.66C121.087 1071.69 121.068 1071.72 121.041 1071.74C121.014 1071.76 120.981 1071.77 120.947 1071.77C120.913 1071.77 120.88 1071.76 120.853 1071.74C120.826 1071.72 120.807 1071.69 120.798 1071.66L120.308 1069.76C120.28 1069.65 120.225 1069.55 120.146 1069.47C120.068 1069.4 119.97 1069.34 119.863 1069.31L117.964 1068.82C117.931 1068.81 117.903 1068.79 117.882 1068.77C117.862 1068.74 117.851 1068.71 117.851 1068.67C117.851 1068.64 117.862 1068.61 117.882 1068.58C117.903 1068.55 117.931 1068.53 117.964 1068.52L119.863 1068.04Z" fill="white"/>
<path d="M119.863 1068.04C119.97 1068.01 120.068 1067.95 120.146 1067.87C120.225 1067.8 120.28 1067.7 120.308 1067.59L120.798 1065.69C120.807 1065.66 120.827 1065.63 120.853 1065.61C120.88 1065.59 120.913 1065.58 120.947 1065.58C120.981 1065.58 121.013 1065.59 121.04 1065.61C121.067 1065.63 121.087 1065.66 121.096 1065.69L121.586 1067.59C121.613 1067.7 121.669 1067.79 121.747 1067.87C121.826 1067.95 121.923 1068.01 122.03 1068.04L123.93 1068.52C123.962 1068.53 123.991 1068.55 124.011 1068.58C124.032 1068.61 124.043 1068.64 124.043 1068.67C124.043 1068.71 124.032 1068.74 124.011 1068.77C123.991 1068.79 123.962 1068.81 123.93 1068.82L122.03 1069.31C121.923 1069.34 121.826 1069.4 121.747 1069.47C121.669 1069.55 121.613 1069.65 121.586 1069.76L121.096 1071.66C121.087 1071.69 121.068 1071.72 121.041 1071.74C121.014 1071.76 120.981 1071.77 120.947 1071.77C120.913 1071.77 120.88 1071.76 120.853 1071.74C120.826 1071.72 120.807 1071.69 120.798 1071.66L120.308 1069.76C120.28 1069.65 120.225 1069.55 120.146 1069.47C120.068 1069.4 119.97 1069.34 119.863 1069.31L117.964 1068.82C117.931 1068.81 117.903 1068.79 117.882 1068.77C117.862 1068.74 117.851 1068.71 117.851 1068.67C117.851 1068.64 117.862 1068.61 117.882 1068.58C117.903 1068.55 117.931 1068.53 117.964 1068.52L119.863 1068.04Z" stroke="white" stroke-width="0.900013" stroke-linecap="round" stroke-linejoin="round"/>
</g>
<g opacity="0.4" filter="url(#filter14_d_122_651)">
<path d="M7.8632 141.035C7.97034 141.007 8.06812 140.952 8.14637 140.873C8.22461 140.795 8.28046 140.697 8.3081 140.59L8.7979 138.691C8.8071 138.658 8.82662 138.63 8.85349 138.609C8.88037 138.589 8.91313 138.578 8.94682 138.578C8.98051 138.578 9.01327 138.589 9.04015 138.609C9.06703 138.63 9.08654 138.658 9.09574 138.691L9.58585 140.59C9.61346 140.697 9.66927 140.795 9.74745 140.873C9.82564 140.951 9.92336 141.007 10.0304 141.035L11.9299 141.525C11.9624 141.534 11.9911 141.553 12.0115 141.58C12.0319 141.607 12.043 141.64 12.043 141.674C12.043 141.708 12.0319 141.741 12.0115 141.767C11.9911 141.794 11.9624 141.814 11.9299 141.823L10.0304 142.312C9.9233 142.34 9.82552 142.396 9.74727 142.474C9.66903 142.552 9.61318 142.65 9.58554 142.757L9.09605 144.657C9.08704 144.689 9.06756 144.718 9.04061 144.739C9.01365 144.759 8.9807 144.77 8.94682 144.77C8.91294 144.77 8.87999 144.759 8.85303 144.739C8.82608 144.718 8.8066 144.689 8.79759 144.657L8.3081 142.757C8.28046 142.65 8.22461 142.552 8.14637 142.474C8.06812 142.396 7.97034 142.34 7.8632 142.312L5.96376 141.823C5.93122 141.814 5.90256 141.794 5.88214 141.767C5.86172 141.74 5.85067 141.707 5.85067 141.674C5.85067 141.64 5.86172 141.607 5.88214 141.58C5.90256 141.553 5.93122 141.534 5.96376 141.524L7.8632 141.035Z" fill="white"/>
<path d="M7.8632 141.035C7.97034 141.007 8.06812 140.952 8.14637 140.873C8.22461 140.795 8.28046 140.697 8.3081 140.59L8.7979 138.691C8.8071 138.658 8.82662 138.63 8.85349 138.609C8.88037 138.589 8.91313 138.578 8.94682 138.578C8.98051 138.578 9.01327 138.589 9.04015 138.609C9.06703 138.63 9.08654 138.658 9.09574 138.691L9.58585 140.59C9.61346 140.697 9.66927 140.795 9.74745 140.873C9.82564 140.951 9.92336 141.007 10.0304 141.035L11.9299 141.525C11.9624 141.534 11.9911 141.553 12.0115 141.58C12.0319 141.607 12.043 141.64 12.043 141.674C12.043 141.708 12.0319 141.741 12.0115 141.767C11.9911 141.794 11.9624 141.814 11.9299 141.823L10.0304 142.312C9.9233 142.34 9.82552 142.396 9.74727 142.474C9.66903 142.552 9.61318 142.65 9.58554 142.757L9.09605 144.657C9.08704 144.689 9.06756 144.718 9.04061 144.739C9.01365 144.759 8.9807 144.77 8.94682 144.77C8.91294 144.77 8.87999 144.759 8.85303 144.739C8.82608 144.718 8.8066 144.689 8.79759 144.657L8.3081 142.757C8.28046 142.65 8.22461 142.552 8.14637 142.474C8.06812 142.396 7.97034 142.34 7.8632 142.312L5.96376 141.823C5.93122 141.814 5.90256 141.794 5.88214 141.767C5.86172 141.74 5.85067 141.707 5.85067 141.674C5.85067 141.64 5.86172 141.607 5.88214 141.58C5.90256 141.553 5.93122 141.534 5.96376 141.524L7.8632 141.035Z" stroke="white" stroke-width="0.900013" stroke-linecap="round" stroke-linejoin="round"/>
</g>
<g filter="url(#filter15_d_122_651)">
<path d="M372.23 133.301C372.338 133.273 372.435 133.217 372.514 133.139C372.592 133.061 372.648 132.963 372.675 132.856L373.165 130.956C373.174 130.924 373.194 130.895 373.221 130.875C373.248 130.855 373.28 130.844 373.314 130.844C373.348 130.844 373.38 130.855 373.407 130.875C373.434 130.895 373.454 130.924 373.463 130.956L373.953 132.856C373.981 132.963 374.036 133.061 374.115 133.139C374.193 133.217 374.291 133.273 374.398 133.301L376.297 133.79C376.33 133.8 376.358 133.819 376.379 133.846C376.399 133.873 376.41 133.906 376.41 133.939C376.41 133.973 376.399 134.006 376.379 134.033C376.358 134.06 376.33 134.079 376.297 134.089L374.398 134.578C374.29 134.606 374.193 134.662 374.114 134.74C374.036 134.818 373.98 134.916 373.953 135.023L373.463 136.922C373.454 136.955 373.435 136.984 373.408 137.004C373.381 137.025 373.348 137.036 373.314 137.036C373.28 137.036 373.247 137.025 373.22 137.004C373.193 136.984 373.174 136.955 373.165 136.922L372.675 135.023C372.648 134.916 372.592 134.818 372.514 134.74C372.435 134.662 372.338 134.606 372.23 134.578L370.331 134.088C370.298 134.079 370.27 134.06 370.249 134.033C370.229 134.006 370.218 133.973 370.218 133.939C370.218 133.905 370.229 133.873 370.249 133.846C370.27 133.819 370.298 133.799 370.331 133.79L372.23 133.301Z" fill="white"/>
<path d="M372.23 133.301C372.338 133.273 372.435 133.217 372.514 133.139C372.592 133.061 372.648 132.963 372.675 132.856L373.165 130.956C373.174 130.924 373.194 130.895 373.221 130.875C373.248 130.855 373.28 130.844 373.314 130.844C373.348 130.844 373.38 130.855 373.407 130.875C373.434 130.895 373.454 130.924 373.463 130.956L373.953 132.856C373.981 132.963 374.036 133.061 374.115 133.139C374.193 133.217 374.291 133.273 374.398 133.301L376.297 133.79C376.33 133.8 376.358 133.819 376.379 133.846C376.399 133.873 376.41 133.906 376.41 133.939C376.41 133.973 376.399 134.006 376.379 134.033C376.358 134.06 376.33 134.079 376.297 134.089L374.398 134.578C374.29 134.606 374.193 134.662 374.114 134.74C374.036 134.818 373.98 134.916 373.953 135.023L373.463 136.922C373.454 136.955 373.435 136.984 373.408 137.004C373.381 137.025 373.348 137.036 373.314 137.036C373.28 137.036 373.247 137.025 373.22 137.004C373.193 136.984 373.174 136.955 373.165 136.922L372.675 135.023C372.648 134.916 372.592 134.818 372.514 134.74C372.435 134.662 372.338 134.606 372.23 134.578L370.331 134.088C370.298 134.079 370.27 134.06 370.249 134.033C370.229 134.006 370.218 133.973 370.218 133.939C370.218 133.905 370.229 133.873 370.249 133.846C370.27 133.819 370.298 133.799 370.331 133.79L372.23 133.301Z" stroke="white" stroke-width="0.900013" stroke-linecap="round" stroke-linejoin="round"/>
</g>
<g opacity="0.2" filter="url(#filter16_d_122_651)">
<path d="M466.307 24.6768C466.384 24.657 466.454 24.6172 466.51 24.5613C466.566 24.5054 466.605 24.4355 466.625 24.359L466.975 23.0023C466.982 22.9791 466.996 22.9587 467.015 22.9442C467.034 22.9297 467.057 22.9219 467.081 22.9219C467.105 22.9219 467.129 22.9297 467.148 22.9442C467.167 22.9587 467.181 22.9791 467.188 23.0023L467.538 24.359C467.558 24.4355 467.597 24.5053 467.653 24.5612C467.709 24.6171 467.779 24.657 467.855 24.6768L469.212 25.0266C469.235 25.0331 469.256 25.0471 469.27 25.0663C469.285 25.0855 469.293 25.109 469.293 25.1331C469.293 25.1573 469.285 25.1807 469.27 25.2C469.256 25.2192 469.235 25.2331 469.212 25.2396L467.855 25.5892C467.779 25.609 467.709 25.6489 467.653 25.7048C467.597 25.7607 467.557 25.8305 467.538 25.907L467.188 27.2638C467.182 27.2871 467.168 27.3077 467.148 27.3223C467.129 27.337 467.106 27.3449 467.081 27.3449C467.057 27.3449 467.034 27.337 467.014 27.3223C466.995 27.3077 466.981 27.2871 466.975 27.2638L466.625 25.907C466.605 25.8305 466.566 25.7607 466.51 25.7048C466.454 25.6489 466.384 25.609 466.307 25.5892L464.951 25.2394C464.927 25.2329 464.907 25.219 464.892 25.1997C464.878 25.1805 464.87 25.157 464.87 25.1329C464.87 25.1088 464.878 25.0853 464.892 25.0661C464.907 25.0469 464.927 25.0329 464.951 25.0264L466.307 24.6768Z" fill="white"/>
<path d="M466.307 24.6768C466.384 24.657 466.454 24.6172 466.51 24.5613C466.566 24.5054 466.605 24.4355 466.625 24.359L466.975 23.0023C466.982 22.9791 466.996 22.9587 467.015 22.9442C467.034 22.9297 467.057 22.9219 467.081 22.9219C467.105 22.9219 467.129 22.9297 467.148 22.9442C467.167 22.9587 467.181 22.9791 467.188 23.0023L467.538 24.359C467.558 24.4355 467.597 24.5053 467.653 24.5612C467.709 24.6171 467.779 24.657 467.855 24.6768L469.212 25.0266C469.235 25.0331 469.256 25.0471 469.27 25.0663C469.285 25.0855 469.293 25.109 469.293 25.1331C469.293 25.1573 469.285 25.1807 469.27 25.2C469.256 25.2192 469.235 25.2331 469.212 25.2396L467.855 25.5892C467.779 25.609 467.709 25.6489 467.653 25.7048C467.597 25.7607 467.557 25.8305 467.538 25.907L467.188 27.2638C467.182 27.2871 467.168 27.3077 467.148 27.3223C467.129 27.337 467.106 27.3449 467.081 27.3449C467.057 27.3449 467.034 27.337 467.014 27.3223C466.995 27.3077 466.981 27.2871 466.975 27.2638L466.625 25.907C466.605 25.8305 466.566 25.7607 466.51 25.7048C466.454 25.6489 466.384 25.609 466.307 25.5892L464.951 25.2394C464.927 25.2329 464.907 25.219 464.892 25.1997C464.878 25.1805 464.87 25.157 464.87 25.1329C464.87 25.1088 464.878 25.0853 464.892 25.0661C464.907 25.0469 464.927 25.0329 464.951 25.0264L466.307 24.6768Z" stroke="white" stroke-width="0.900013" stroke-linecap="round" stroke-linejoin="round"/>
</g>
<g opacity="0.2" filter="url(#filter17_d_122_651)">
<path d="M401.362 604.95C401.439 604.93 401.508 604.891 401.564 604.835C401.62 604.779 401.66 604.709 401.68 604.632L402.03 603.276C402.036 603.253 402.05 603.232 402.069 603.218C402.089 603.203 402.112 603.195 402.136 603.195C402.16 603.195 402.184 603.203 402.203 603.218C402.222 603.232 402.236 603.253 402.242 603.276L402.593 604.632C402.612 604.709 402.652 604.779 402.708 604.835C402.764 604.891 402.834 604.93 402.91 604.95L404.267 605.3C404.29 605.307 404.311 605.321 404.325 605.34C404.34 605.359 404.348 605.382 404.348 605.407C404.348 605.431 404.34 605.454 404.325 605.473C404.311 605.493 404.29 605.507 404.267 605.513L402.91 605.863C402.834 605.882 402.764 605.922 402.708 605.978C402.652 606.034 402.612 606.104 402.592 606.18L402.243 607.537C402.236 607.561 402.222 607.581 402.203 607.596C402.184 607.61 402.16 607.618 402.136 607.618C402.112 607.618 402.088 607.61 402.069 607.596C402.05 607.581 402.036 607.561 402.03 607.537L401.68 606.18C401.66 606.104 401.62 606.034 401.564 605.978C401.508 605.922 401.439 605.882 401.362 605.863L400.005 605.513C399.982 605.506 399.962 605.492 399.947 605.473C399.932 605.454 399.925 605.43 399.925 605.406C399.925 605.382 399.932 605.359 399.947 605.34C399.962 605.32 399.982 605.306 400.005 605.3L401.362 604.95Z" fill="white"/>
<path d="M401.362 604.95C401.439 604.93 401.508 604.891 401.564 604.835C401.62 604.779 401.66 604.709 401.68 604.632L402.03 603.276C402.036 603.253 402.05 603.232 402.069 603.218C402.089 603.203 402.112 603.195 402.136 603.195C402.16 603.195 402.184 603.203 402.203 603.218C402.222 603.232 402.236 603.253 402.242 603.276L402.593 604.632C402.612 604.709 402.652 604.779 402.708 604.835C402.764 604.891 402.834 604.93 402.91 604.95L404.267 605.3C404.29 605.307 404.311 605.321 404.325 605.34C404.34 605.359 404.348 605.382 404.348 605.407C404.348 605.431 404.34 605.454 404.325 605.473C404.311 605.493 404.29 605.507 404.267 605.513L402.91 605.863C402.834 605.882 402.764 605.922 402.708 605.978C402.652 606.034 402.612 606.104 402.592 606.18L402.243 607.537C402.236 607.561 402.222 607.581 402.203 607.596C402.184 607.61 402.16 607.618 402.136 607.618C402.112 607.618 402.088 607.61 402.069 607.596C402.05 607.581 402.036 607.561 402.03 607.537L401.68 606.18C401.66 606.104 401.62 606.034 401.564 605.978C401.508 605.922 401.439 605.882 401.362 605.863L400.005 605.513C399.982 605.506 399.962 605.492 399.947 605.473C399.932 605.454 399.925 605.43 399.925 605.406C399.925 605.382 399.932 605.359 399.947 605.34C399.962 605.32 399.982 605.306 400.005 605.3L401.362 604.95Z" stroke="white" stroke-width="0.900013" stroke-linecap="round" stroke-linejoin="round"/>
</g>
<g filter="url(#filter18_d_122_651)">
<path d="M475.832 1158.45C475.939 1158.42 476.036 1158.37 476.114 1158.29C476.192 1158.21 476.248 1158.12 476.276 1158.01L476.765 1156.11C476.774 1156.08 476.793 1156.05 476.82 1156.03C476.847 1156.01 476.88 1156 476.913 1156C476.947 1156 476.98 1156.01 477.006 1156.03C477.033 1156.05 477.053 1156.08 477.062 1156.11L477.551 1158.01C477.579 1158.12 477.634 1158.21 477.712 1158.29C477.791 1158.37 477.888 1158.42 477.995 1158.45L479.891 1158.94C479.924 1158.95 479.952 1158.97 479.972 1159C479.993 1159.02 480.004 1159.06 480.004 1159.09C480.004 1159.12 479.993 1159.16 479.972 1159.18C479.952 1159.21 479.924 1159.23 479.891 1159.24L477.995 1159.73C477.888 1159.76 477.79 1159.81 477.712 1159.89C477.634 1159.97 477.578 1160.06 477.551 1160.17L477.062 1162.07C477.053 1162.1 477.034 1162.13 477.007 1162.15C476.98 1162.17 476.947 1162.18 476.913 1162.18C476.879 1162.18 476.847 1162.17 476.82 1162.15C476.793 1162.13 476.773 1162.1 476.764 1162.07L476.276 1160.17C476.248 1160.06 476.192 1159.97 476.114 1159.89C476.036 1159.81 475.939 1159.76 475.832 1159.73L473.936 1159.24C473.903 1159.23 473.874 1159.21 473.854 1159.18C473.834 1159.16 473.823 1159.12 473.823 1159.09C473.823 1159.06 473.834 1159.02 473.854 1159C473.874 1158.97 473.903 1158.95 473.936 1158.94L475.832 1158.45Z" fill="white"/>
<path d="M475.832 1158.45C475.939 1158.42 476.036 1158.37 476.114 1158.29C476.192 1158.21 476.248 1158.12 476.276 1158.01L476.765 1156.11C476.774 1156.08 476.793 1156.05 476.82 1156.03C476.847 1156.01 476.88 1156 476.913 1156C476.947 1156 476.98 1156.01 477.006 1156.03C477.033 1156.05 477.053 1156.08 477.062 1156.11L477.551 1158.01C477.579 1158.12 477.634 1158.21 477.712 1158.29C477.791 1158.37 477.888 1158.42 477.995 1158.45L479.891 1158.94C479.924 1158.95 479.952 1158.97 479.972 1159C479.993 1159.02 480.004 1159.06 480.004 1159.09C480.004 1159.12 479.993 1159.16 479.972 1159.18C479.952 1159.21 479.924 1159.23 479.891 1159.24L477.995 1159.73C477.888 1159.76 477.79 1159.81 477.712 1159.89C477.634 1159.97 477.578 1160.06 477.551 1160.17L477.062 1162.07C477.053 1162.1 477.034 1162.13 477.007 1162.15C476.98 1162.17 476.947 1162.18 476.913 1162.18C476.879 1162.18 476.847 1162.17 476.82 1162.15C476.793 1162.13 476.773 1162.1 476.764 1162.07L476.276 1160.17C476.248 1160.06 476.192 1159.97 476.114 1159.89C476.036 1159.81 475.939 1159.76 475.832 1159.73L473.936 1159.24C473.903 1159.23 473.874 1159.21 473.854 1159.18C473.834 1159.16 473.823 1159.12 473.823 1159.09C473.823 1159.06 473.834 1159.02 473.854 1159C473.874 1158.97 473.903 1158.95 473.936 1158.94L475.832 1158.45Z" stroke="white" stroke-width="0.898407" stroke-linecap="round" stroke-linejoin="round"/>
</g>
<g opacity="0.4" filter="url(#filter19_d_122_651)">
<path d="M317.68 1088.19C317.756 1088.17 317.826 1088.13 317.882 1088.07C317.938 1088.02 317.977 1087.95 317.997 1087.87L318.346 1086.52C318.353 1086.49 318.367 1086.47 318.386 1086.46C318.405 1086.45 318.429 1086.44 318.453 1086.44C318.477 1086.44 318.5 1086.45 318.519 1086.46C318.538 1086.47 318.552 1086.49 318.559 1086.52L318.908 1087.87C318.928 1087.95 318.968 1088.02 319.023 1088.07C319.079 1088.13 319.149 1088.17 319.225 1088.19L320.58 1088.54C320.603 1088.55 320.623 1088.56 320.638 1088.58C320.652 1088.6 320.66 1088.62 320.66 1088.64C320.66 1088.67 320.652 1088.69 320.638 1088.71C320.623 1088.73 320.603 1088.74 320.58 1088.75L319.225 1089.1C319.149 1089.12 319.079 1089.16 319.023 1089.22C318.968 1089.27 318.928 1089.34 318.908 1089.42L318.559 1090.77C318.553 1090.79 318.539 1090.82 318.519 1090.83C318.5 1090.84 318.477 1090.85 318.453 1090.85C318.428 1090.85 318.405 1090.84 318.386 1090.83C318.366 1090.82 318.353 1090.79 318.346 1090.77L317.997 1089.42C317.977 1089.34 317.938 1089.27 317.882 1089.22C317.826 1089.16 317.756 1089.12 317.68 1089.1L316.326 1088.75C316.302 1088.74 316.282 1088.73 316.267 1088.71C316.253 1088.69 316.245 1088.67 316.245 1088.64C316.245 1088.62 316.253 1088.6 316.267 1088.58C316.282 1088.56 316.302 1088.54 316.326 1088.54L317.68 1088.19Z" fill="white"/>
<path d="M317.68 1088.19C317.756 1088.17 317.826 1088.13 317.882 1088.07C317.938 1088.02 317.977 1087.95 317.997 1087.87L318.346 1086.52C318.353 1086.49 318.367 1086.47 318.386 1086.46C318.405 1086.45 318.429 1086.44 318.453 1086.44C318.477 1086.44 318.5 1086.45 318.519 1086.46C318.538 1086.47 318.552 1086.49 318.559 1086.52L318.908 1087.87C318.928 1087.95 318.968 1088.02 319.023 1088.07C319.079 1088.13 319.149 1088.17 319.225 1088.19L320.58 1088.54C320.603 1088.55 320.623 1088.56 320.638 1088.58C320.652 1088.6 320.66 1088.62 320.66 1088.64C320.66 1088.67 320.652 1088.69 320.638 1088.71C320.623 1088.73 320.603 1088.74 320.58 1088.75L319.225 1089.1C319.149 1089.12 319.079 1089.16 319.023 1089.22C318.968 1089.27 318.928 1089.34 318.908 1089.42L318.559 1090.77C318.553 1090.79 318.539 1090.82 318.519 1090.83C318.5 1090.84 318.477 1090.85 318.453 1090.85C318.428 1090.85 318.405 1090.84 318.386 1090.83C318.366 1090.82 318.353 1090.79 318.346 1090.77L317.997 1089.42C317.977 1089.34 317.938 1089.27 317.882 1089.22C317.826 1089.16 317.756 1089.12 317.68 1089.1L316.326 1088.75C316.302 1088.74 316.282 1088.73 316.267 1088.71C316.253 1088.69 316.245 1088.67 316.245 1088.64C316.245 1088.62 316.253 1088.6 316.267 1088.58C316.282 1088.56 316.302 1088.54 316.326 1088.54L317.68 1088.19Z" stroke="white" stroke-width="0.898407" stroke-linecap="round" stroke-linejoin="round"/>
</g>
<g opacity="0.4" filter="url(#filter20_d_122_651)">
<path d="M639.055 919.752C639.131 919.732 639.201 919.692 639.257 919.636C639.313 919.581 639.352 919.511 639.372 919.435L639.721 918.08C639.728 918.057 639.742 918.037 639.761 918.022C639.78 918.008 639.804 918 639.828 918C639.852 918 639.875 918.008 639.894 918.022C639.913 918.037 639.927 918.057 639.934 918.08L640.283 919.435C640.303 919.511 640.343 919.581 640.398 919.636C640.454 919.692 640.524 919.732 640.6 919.752L641.955 920.101C641.978 920.108 641.998 920.121 642.013 920.141C642.027 920.16 642.035 920.183 642.035 920.207C642.035 920.231 642.027 920.255 642.013 920.274C641.998 920.293 641.978 920.307 641.955 920.314L640.6 920.663C640.524 920.682 640.454 920.722 640.398 920.778C640.343 920.834 640.303 920.903 640.283 920.98L639.934 922.334C639.928 922.357 639.914 922.378 639.894 922.393C639.875 922.407 639.852 922.415 639.828 922.415C639.803 922.415 639.78 922.407 639.761 922.393C639.741 922.378 639.728 922.357 639.721 922.334L639.372 920.98C639.352 920.903 639.313 920.834 639.257 920.778C639.201 920.722 639.131 920.682 639.055 920.663L637.701 920.313C637.677 920.307 637.657 920.293 637.642 920.274C637.628 920.255 637.62 920.231 637.62 920.207C637.62 920.183 637.628 920.16 637.642 920.14C637.657 920.121 637.677 920.107 637.701 920.101L639.055 919.752Z" fill="white"/>
<path d="M639.055 919.752C639.131 919.732 639.201 919.692 639.257 919.636C639.313 919.581 639.352 919.511 639.372 919.435L639.721 918.08C639.728 918.057 639.742 918.037 639.761 918.022C639.78 918.008 639.804 918 639.828 918C639.852 918 639.875 918.008 639.894 918.022C639.913 918.037 639.927 918.057 639.934 918.08L640.283 919.435C640.303 919.511 640.343 919.581 640.398 919.636C640.454 919.692 640.524 919.732 640.6 919.752L641.955 920.101C641.978 920.108 641.998 920.121 642.013 920.141C642.027 920.16 642.035 920.183 642.035 920.207C642.035 920.231 642.027 920.255 642.013 920.274C641.998 920.293 641.978 920.307 641.955 920.314L640.6 920.663C640.524 920.682 640.454 920.722 640.398 920.778C640.343 920.834 640.303 920.903 640.283 920.98L639.934 922.334C639.928 922.357 639.914 922.378 639.894 922.393C639.875 922.407 639.852 922.415 639.828 922.415C639.803 922.415 639.78 922.407 639.761 922.393C639.741 922.378 639.728 922.357 639.721 922.334L639.372 920.98C639.352 920.903 639.313 920.834 639.257 920.778C639.201 920.722 639.131 920.682 639.055 920.663L637.701 920.313C637.677 920.307 637.657 920.293 637.642 920.274C637.628 920.255 637.62 920.231 637.62 920.207C637.62 920.183 637.628 920.16 637.642 920.14C637.657 920.121 637.677 920.107 637.701 920.101L639.055 919.752Z" stroke="white" stroke-width="0.898407" stroke-linecap="round" stroke-linejoin="round"/>
</g>
<g filter="url(#filter21_d_122_651)">
<path d="M660.375 568.463C660.452 568.443 660.521 568.403 660.577 568.347C660.633 568.292 660.673 568.222 660.692 568.145L661.042 566.791C661.048 566.768 661.062 566.748 661.081 566.733C661.1 566.719 661.124 566.711 661.148 566.711C661.172 566.711 661.195 566.719 661.214 566.733C661.234 566.748 661.248 566.768 661.254 566.791L661.604 568.145C661.623 568.222 661.663 568.292 661.719 568.347C661.774 568.403 661.844 568.443 661.921 568.463L663.275 568.812C663.298 568.818 663.318 568.832 663.333 568.852C663.348 568.871 663.355 568.894 663.355 568.918C663.355 568.942 663.348 568.966 663.333 568.985C663.318 569.004 663.298 569.018 663.275 569.025L661.921 569.374C661.844 569.393 661.774 569.433 661.719 569.489C661.663 569.545 661.623 569.614 661.603 569.691L661.254 571.045C661.248 571.068 661.234 571.089 661.215 571.104C661.196 571.118 661.172 571.126 661.148 571.126C661.124 571.126 661.1 571.118 661.081 571.104C661.062 571.089 661.048 571.068 661.041 571.045L660.692 569.691C660.673 569.614 660.633 569.545 660.577 569.489C660.521 569.433 660.452 569.393 660.375 569.374L659.021 569.024C658.998 569.018 658.977 569.004 658.963 568.985C658.948 568.966 658.94 568.942 658.94 568.918C658.94 568.894 658.948 568.871 658.963 568.851C658.977 568.832 658.998 568.818 659.021 568.812L660.375 568.463Z" fill="white"/>
<path d="M660.375 568.463C660.452 568.443 660.521 568.403 660.577 568.347C660.633 568.292 660.673 568.222 660.692 568.145L661.042 566.791C661.048 566.768 661.062 566.748 661.081 566.733C661.1 566.719 661.124 566.711 661.148 566.711C661.172 566.711 661.195 566.719 661.214 566.733C661.234 566.748 661.248 566.768 661.254 566.791L661.604 568.145C661.623 568.222 661.663 568.292 661.719 568.347C661.774 568.403 661.844 568.443 661.921 568.463L663.275 568.812C663.298 568.818 663.318 568.832 663.333 568.852C663.348 568.871 663.355 568.894 663.355 568.918C663.355 568.942 663.348 568.966 663.333 568.985C663.318 569.004 663.298 569.018 663.275 569.025L661.921 569.374C661.844 569.393 661.774 569.433 661.719 569.489C661.663 569.545 661.623 569.614 661.603 569.691L661.254 571.045C661.248 571.068 661.234 571.089 661.215 571.104C661.196 571.118 661.172 571.126 661.148 571.126C661.124 571.126 661.1 571.118 661.081 571.104C661.062 571.089 661.048 571.068 661.041 571.045L660.692 569.691C660.673 569.614 660.633 569.545 660.577 569.489C660.521 569.433 660.452 569.393 660.375 569.374L659.021 569.024C658.998 569.018 658.977 569.004 658.963 568.985C658.948 568.966 658.94 568.942 658.94 568.918C658.94 568.894 658.948 568.871 658.963 568.851C658.977 568.832 658.998 568.818 659.021 568.812L660.375 568.463Z" stroke="white" stroke-width="0.898407" stroke-linecap="round" stroke-linejoin="round"/>
</g>
<g filter="url(#filter22_d_122_651)">
<path d="M571.808 809.452C571.915 809.425 572.013 809.369 572.091 809.291C572.169 809.213 572.225 809.115 572.252 809.008L572.741 807.112C572.75 807.08 572.77 807.052 572.797 807.031C572.824 807.011 572.856 807 572.89 807C572.923 807 572.956 807.011 572.983 807.031C573.01 807.052 573.029 807.08 573.039 807.112L573.528 809.008C573.555 809.115 573.611 809.213 573.689 809.291C573.767 809.369 573.865 809.425 573.972 809.452L575.868 809.941C575.9 809.951 575.929 809.97 575.949 809.997C575.969 810.024 575.98 810.057 575.98 810.09C575.98 810.124 575.969 810.157 575.949 810.184C575.929 810.21 575.9 810.23 575.868 810.239L573.972 810.728C573.865 810.755 573.767 810.811 573.689 810.889C573.611 810.967 573.555 811.065 573.527 811.172L573.039 813.068C573.03 813.1 573.01 813.129 572.983 813.15C572.957 813.17 572.924 813.181 572.89 813.181C572.856 813.181 572.823 813.17 572.796 813.15C572.769 813.129 572.75 813.1 572.741 813.068L572.252 811.172C572.225 811.065 572.169 810.967 572.091 810.889C572.013 810.811 571.915 810.755 571.808 810.728L569.912 810.239C569.88 810.23 569.851 810.21 569.831 810.183C569.81 810.156 569.799 810.124 569.799 810.09C569.799 810.056 569.81 810.023 569.831 809.997C569.851 809.97 569.88 809.95 569.912 809.941L571.808 809.452Z" fill="white"/>
<path d="M571.808 809.452C571.915 809.425 572.013 809.369 572.091 809.291C572.169 809.213 572.225 809.115 572.252 809.008L572.741 807.112C572.75 807.08 572.77 807.052 572.797 807.031C572.824 807.011 572.856 807 572.89 807C572.923 807 572.956 807.011 572.983 807.031C573.01 807.052 573.029 807.08 573.039 807.112L573.528 809.008C573.555 809.115 573.611 809.213 573.689 809.291C573.767 809.369 573.865 809.425 573.972 809.452L575.868 809.941C575.9 809.951 575.929 809.97 575.949 809.997C575.969 810.024 575.98 810.057 575.98 810.09C575.98 810.124 575.969 810.157 575.949 810.184C575.929 810.21 575.9 810.23 575.868 810.239L573.972 810.728C573.865 810.755 573.767 810.811 573.689 810.889C573.611 810.967 573.555 811.065 573.527 811.172L573.039 813.068C573.03 813.1 573.01 813.129 572.983 813.15C572.957 813.17 572.924 813.181 572.89 813.181C572.856 813.181 572.823 813.17 572.796 813.15C572.769 813.129 572.75 813.1 572.741 813.068L572.252 811.172C572.225 811.065 572.169 810.967 572.091 810.889C572.013 810.811 571.915 810.755 571.808 810.728L569.912 810.239C569.88 810.23 569.851 810.21 569.831 810.183C569.81 810.156 569.799 810.124 569.799 810.09C569.799 810.056 569.81 810.023 569.831 809.997C569.851 809.97 569.88 809.95 569.912 809.941L571.808 809.452Z" stroke="white" stroke-width="0.898407" stroke-linecap="round" stroke-linejoin="round"/>
</g>
<g opacity="0.4" filter="url(#filter23_d_122_651)">
<path d="M486.863 538.035C486.97 538.007 487.068 537.952 487.146 537.873C487.225 537.795 487.28 537.697 487.308 537.59L487.798 535.691C487.807 535.658 487.827 535.63 487.853 535.609C487.88 535.589 487.913 535.578 487.947 535.578C487.981 535.578 488.013 535.589 488.04 535.609C488.067 535.63 488.087 535.658 488.096 535.691L488.586 537.59C488.613 537.697 488.669 537.795 488.747 537.873C488.826 537.951 488.923 538.007 489.03 538.035L490.93 538.525C490.962 538.534 490.991 538.553 491.011 538.58C491.032 538.607 491.043 538.64 491.043 538.674C491.043 538.708 491.032 538.741 491.011 538.767C490.991 538.794 490.962 538.814 490.93 538.823L489.03 539.312C488.923 539.34 488.826 539.396 488.747 539.474C488.669 539.552 488.613 539.65 488.586 539.757L488.096 541.657C488.087 541.689 488.068 541.718 488.041 541.739C488.014 541.759 487.981 541.77 487.947 541.77C487.913 541.77 487.88 541.759 487.853 541.739C487.826 541.718 487.807 541.689 487.798 541.657L487.308 539.757C487.28 539.65 487.225 539.552 487.146 539.474C487.068 539.396 486.97 539.34 486.863 539.312L484.964 538.823C484.931 538.814 484.903 538.794 484.882 538.767C484.862 538.74 484.851 538.707 484.851 538.674C484.851 538.64 484.862 538.607 484.882 538.58C484.903 538.553 484.931 538.534 484.964 538.524L486.863 538.035Z" fill="white"/>
<path d="M486.863 538.035C486.97 538.007 487.068 537.952 487.146 537.873C487.225 537.795 487.28 537.697 487.308 537.59L487.798 535.691C487.807 535.658 487.827 535.63 487.853 535.609C487.88 535.589 487.913 535.578 487.947 535.578C487.981 535.578 488.013 535.589 488.04 535.609C488.067 535.63 488.087 535.658 488.096 535.691L488.586 537.59C488.613 537.697 488.669 537.795 488.747 537.873C488.826 537.951 488.923 538.007 489.03 538.035L490.93 538.525C490.962 538.534 490.991 538.553 491.011 538.58C491.032 538.607 491.043 538.64 491.043 538.674C491.043 538.708 491.032 538.741 491.011 538.767C490.991 538.794 490.962 538.814 490.93 538.823L489.03 539.312C488.923 539.34 488.826 539.396 488.747 539.474C488.669 539.552 488.613 539.65 488.586 539.757L488.096 541.657C488.087 541.689 488.068 541.718 488.041 541.739C488.014 541.759 487.981 541.77 487.947 541.77C487.913 541.77 487.88 541.759 487.853 541.739C487.826 541.718 487.807 541.689 487.798 541.657L487.308 539.757C487.28 539.65 487.225 539.552 487.146 539.474C487.068 539.396 486.97 539.34 486.863 539.312L484.964 538.823C484.931 538.814 484.903 538.794 484.882 538.767C484.862 538.74 484.851 538.707 484.851 538.674C484.851 538.64 484.862 538.607 484.882 538.58C484.903 538.553 484.931 538.534 484.964 538.524L486.863 538.035Z" stroke="white" stroke-width="0.900013" stroke-linecap="round" stroke-linejoin="round"/>
</g>
<g opacity="0.2" filter="url(#filter24_d_122_651)">
<path d="M470.362 593.95C470.439 593.93 470.508 593.891 470.564 593.835C470.62 593.779 470.66 593.709 470.68 593.632L471.03 592.276C471.036 592.253 471.05 592.232 471.069 592.218C471.089 592.203 471.112 592.195 471.136 592.195C471.16 592.195 471.184 592.203 471.203 592.218C471.222 592.232 471.236 592.253 471.242 592.276L471.593 593.632C471.612 593.709 471.652 593.779 471.708 593.835C471.764 593.891 471.834 593.93 471.91 593.95L473.267 594.3C473.29 594.307 473.311 594.321 473.325 594.34C473.34 594.359 473.348 594.382 473.348 594.407C473.348 594.431 473.34 594.454 473.325 594.473C473.311 594.493 473.29 594.507 473.267 594.513L471.91 594.863C471.834 594.882 471.764 594.922 471.708 594.978C471.652 595.034 471.612 595.104 471.592 595.18L471.243 596.537C471.236 596.561 471.222 596.581 471.203 596.596C471.184 596.61 471.16 596.618 471.136 596.618C471.112 596.618 471.088 596.61 471.069 596.596C471.05 596.581 471.036 596.561 471.03 596.537L470.68 595.18C470.66 595.104 470.62 595.034 470.564 594.978C470.508 594.922 470.439 594.882 470.362 594.863L469.005 594.513C468.982 594.506 468.962 594.492 468.947 594.473C468.932 594.454 468.925 594.43 468.925 594.406C468.925 594.382 468.932 594.359 468.947 594.34C468.962 594.32 468.982 594.306 469.005 594.3L470.362 593.95Z" fill="white"/>
<path d="M470.362 593.95C470.439 593.93 470.508 593.891 470.564 593.835C470.62 593.779 470.66 593.709 470.68 593.632L471.03 592.276C471.036 592.253 471.05 592.232 471.069 592.218C471.089 592.203 471.112 592.195 471.136 592.195C471.16 592.195 471.184 592.203 471.203 592.218C471.222 592.232 471.236 592.253 471.242 592.276L471.593 593.632C471.612 593.709 471.652 593.779 471.708 593.835C471.764 593.891 471.834 593.93 471.91 593.95L473.267 594.3C473.29 594.307 473.311 594.321 473.325 594.34C473.34 594.359 473.348 594.382 473.348 594.407C473.348 594.431 473.34 594.454 473.325 594.473C473.311 594.493 473.29 594.507 473.267 594.513L471.91 594.863C471.834 594.882 471.764 594.922 471.708 594.978C471.652 595.034 471.612 595.104 471.592 595.18L471.243 596.537C471.236 596.561 471.222 596.581 471.203 596.596C471.184 596.61 471.16 596.618 471.136 596.618C471.112 596.618 471.088 596.61 471.069 596.596C471.05 596.581 471.036 596.561 471.03 596.537L470.68 595.18C470.66 595.104 470.62 595.034 470.564 594.978C470.508 594.922 470.439 594.882 470.362 594.863L469.005 594.513C468.982 594.506 468.962 594.492 468.947 594.473C468.932 594.454 468.925 594.43 468.925 594.406C468.925 594.382 468.932 594.359 468.947 594.34C468.962 594.32 468.982 594.306 469.005 594.3L470.362 593.95Z" stroke="white" stroke-width="0.900013" stroke-linecap="round" stroke-linejoin="round"/>
</g>
<g filter="url(#filter25_d_122_651)">
<path d="M415.8 923.601C415.907 923.573 416.005 923.518 416.083 923.439C416.161 923.361 416.217 923.264 416.244 923.157L416.733 921.261C416.743 921.228 416.762 921.2 416.789 921.18C416.816 921.159 416.848 921.148 416.882 921.148C416.916 921.148 416.948 921.159 416.975 921.18C417.002 921.2 417.022 921.228 417.031 921.261L417.52 923.157C417.547 923.264 417.603 923.361 417.681 923.439C417.759 923.518 417.857 923.573 417.964 923.601L419.86 924.09C419.892 924.099 419.921 924.118 419.941 924.145C419.962 924.172 419.973 924.205 419.973 924.239C419.973 924.272 419.962 924.305 419.941 924.332C419.921 924.359 419.892 924.378 419.86 924.387L417.964 924.876C417.857 924.904 417.759 924.959 417.681 925.038C417.603 925.116 417.547 925.213 417.52 925.32L417.031 927.216C417.022 927.249 417.003 927.278 416.976 927.298C416.949 927.319 416.916 927.33 416.882 927.33C416.848 927.33 416.815 927.319 416.788 927.298C416.762 927.278 416.742 927.249 416.733 927.216L416.244 925.32C416.217 925.213 416.161 925.116 416.083 925.038C416.005 924.959 415.907 924.904 415.8 924.876L413.904 924.387C413.872 924.378 413.843 924.359 413.823 924.332C413.802 924.305 413.791 924.272 413.791 924.238C413.791 924.205 413.802 924.172 413.823 924.145C413.843 924.118 413.872 924.099 413.904 924.09L415.8 923.601Z" fill="white"/>
<path d="M415.8 923.601C415.907 923.573 416.005 923.518 416.083 923.439C416.161 923.361 416.217 923.264 416.244 923.157L416.733 921.261C416.743 921.228 416.762 921.2 416.789 921.18C416.816 921.159 416.848 921.148 416.882 921.148C416.916 921.148 416.948 921.159 416.975 921.18C417.002 921.2 417.022 921.228 417.031 921.261L417.52 923.157C417.547 923.264 417.603 923.361 417.681 923.439C417.759 923.518 417.857 923.573 417.964 923.601L419.86 924.09C419.892 924.099 419.921 924.118 419.941 924.145C419.962 924.172 419.973 924.205 419.973 924.239C419.973 924.272 419.962 924.305 419.941 924.332C419.921 924.359 419.892 924.378 419.86 924.387L417.964 924.876C417.857 924.904 417.759 924.959 417.681 925.038C417.603 925.116 417.547 925.213 417.52 925.32L417.031 927.216C417.022 927.249 417.003 927.278 416.976 927.298C416.949 927.319 416.916 927.33 416.882 927.33C416.848 927.33 416.815 927.319 416.788 927.298C416.762 927.278 416.742 927.249 416.733 927.216L416.244 925.32C416.217 925.213 416.161 925.116 416.083 925.038C416.005 924.959 415.907 924.904 415.8 924.876L413.904 924.387C413.872 924.378 413.843 924.359 413.823 924.332C413.802 924.305 413.791 924.272 413.791 924.238C413.791 924.205 413.802 924.172 413.823 924.145C413.843 924.118 413.872 924.099 413.904 924.09L415.8 923.601Z" stroke="white" stroke-width="0.898407" stroke-linecap="round" stroke-linejoin="round"/>
</g>
<g opacity="0.4" filter="url(#filter26_d_122_651)">
<path d="M386.68 1077.19C386.756 1077.17 386.826 1077.13 386.882 1077.07C386.938 1077.02 386.977 1076.95 386.997 1076.87L387.346 1075.52C387.353 1075.49 387.367 1075.47 387.386 1075.46C387.405 1075.45 387.429 1075.44 387.453 1075.44C387.477 1075.44 387.5 1075.45 387.519 1075.46C387.538 1075.47 387.552 1075.49 387.559 1075.52L387.908 1076.87C387.928 1076.95 387.968 1077.02 388.023 1077.07C388.079 1077.13 388.149 1077.17 388.225 1077.19L389.58 1077.54C389.603 1077.55 389.623 1077.56 389.638 1077.58C389.652 1077.6 389.66 1077.62 389.66 1077.64C389.66 1077.67 389.652 1077.69 389.638 1077.71C389.623 1077.73 389.603 1077.74 389.58 1077.75L388.225 1078.1C388.149 1078.12 388.079 1078.16 388.023 1078.22C387.968 1078.27 387.928 1078.34 387.908 1078.42L387.559 1079.77C387.553 1079.79 387.539 1079.82 387.519 1079.83C387.5 1079.84 387.477 1079.85 387.453 1079.85C387.428 1079.85 387.405 1079.84 387.386 1079.83C387.366 1079.82 387.353 1079.79 387.346 1079.77L386.997 1078.42C386.977 1078.34 386.938 1078.27 386.882 1078.22C386.826 1078.16 386.756 1078.12 386.68 1078.1L385.326 1077.75C385.302 1077.74 385.282 1077.73 385.267 1077.71C385.253 1077.69 385.245 1077.67 385.245 1077.64C385.245 1077.62 385.253 1077.6 385.267 1077.58C385.282 1077.56 385.302 1077.54 385.326 1077.54L386.68 1077.19Z" fill="white"/>
<path d="M386.68 1077.19C386.756 1077.17 386.826 1077.13 386.882 1077.07C386.938 1077.02 386.977 1076.95 386.997 1076.87L387.346 1075.52C387.353 1075.49 387.367 1075.47 387.386 1075.46C387.405 1075.45 387.429 1075.44 387.453 1075.44C387.477 1075.44 387.5 1075.45 387.519 1075.46C387.538 1075.47 387.552 1075.49 387.559 1075.52L387.908 1076.87C387.928 1076.95 387.968 1077.02 388.023 1077.07C388.079 1077.13 388.149 1077.17 388.225 1077.19L389.58 1077.54C389.603 1077.55 389.623 1077.56 389.638 1077.58C389.652 1077.6 389.66 1077.62 389.66 1077.64C389.66 1077.67 389.652 1077.69 389.638 1077.71C389.623 1077.73 389.603 1077.74 389.58 1077.75L388.225 1078.1C388.149 1078.12 388.079 1078.16 388.023 1078.22C387.968 1078.27 387.928 1078.34 387.908 1078.42L387.559 1079.77C387.553 1079.79 387.539 1079.82 387.519 1079.83C387.5 1079.84 387.477 1079.85 387.453 1079.85C387.428 1079.85 387.405 1079.84 387.386 1079.83C387.366 1079.82 387.353 1079.79 387.346 1079.77L386.997 1078.42C386.977 1078.34 386.938 1078.27 386.882 1078.22C386.826 1078.16 386.756 1078.12 386.68 1078.1L385.326 1077.75C385.302 1077.74 385.282 1077.73 385.267 1077.71C385.253 1077.69 385.245 1077.67 385.245 1077.64C385.245 1077.62 385.253 1077.6 385.267 1077.58C385.282 1077.56 385.302 1077.54 385.326 1077.54L386.68 1077.19Z" stroke="white" stroke-width="0.898407" stroke-linecap="round" stroke-linejoin="round"/>
</g>
</g>
<defs>
<filter id="filter0_d_122_651" x="494.959" y="812.16" width="17.8618" height="17.8618" filterUnits="userSpaceOnUse" color-interpolation-filters="sRGB">
<feFlood flood-opacity="0" result="BackgroundImageFix"/>
<feColorMatrix in="SourceAlpha" type="matrix" values="0 0 0 0 0 0 0 0 0 0 0 0 0 0 0 0 0 0 127 0" result="hardAlpha"/>
<feOffset/>
<feGaussianBlur stdDeviation="2.69543"/>
<feComposite in2="hardAlpha" operator="out"/>
<feColorMatrix type="matrix" values="0 0 0 0 1 0 0 0 0 1 0 0 0 0 1 0 0 0 0.45 0"/>
<feBlend mode="normal" in2="BackgroundImageFix" result="effect1_dropShadow_122_651"/>
<feBlend mode="normal" in="SourceGraphic" in2="effect1_dropShadow_122_651" result="shape"/>
</filter>
<filter id="filter1_d_122_651" x="708.961" y="-16.0528" width="17.8938" height="17.8928" filterUnits="userSpaceOnUse" color-interpolation-filters="sRGB">
<feFlood flood-opacity="0" result="BackgroundImageFix"/>
<feColorMatrix in="SourceAlpha" type="matrix" values="0 0 0 0 0 0 0 0 0 0 0 0 0 0 0 0 0 0 127 0" result="hardAlpha"/>
<feOffset/>
<feGaussianBlur stdDeviation="2.70025"/>
<feComposite in2="hardAlpha" operator="out"/>
<feColorMatrix type="matrix" values="0 0 0 0 1 0 0 0 0 1 0 0 0 0 1 0 0 0 0.45 0"/>
<feBlend mode="normal" in2="BackgroundImageFix" result="effect1_dropShadow_122_651"/>
<feBlend mode="normal" in="SourceGraphic" in2="effect1_dropShadow_122_651" result="shape"/>
</filter>
<filter id="filter2_d_122_651" x="726.248" y="1110.67" width="17.8618" height="17.8618" filterUnits="userSpaceOnUse" color-interpolation-filters="sRGB">
<feFlood flood-opacity="0" result="BackgroundImageFix"/>
<feColorMatrix in="SourceAlpha" type="matrix" values="0 0 0 0 0 0 0 0 0 0 0 0 0 0 0 0 0 0 127 0" result="hardAlpha"/>
<feOffset/>
<feGaussianBlur stdDeviation="2.69543"/>
<feComposite in2="hardAlpha" operator="out"/>
<feColorMatrix type="matrix" values="0 0 0 0 1 0 0 0 0 1 0 0 0 0 1 0 0 0 0.45 0"/>
<feBlend mode="normal" in2="BackgroundImageFix" result="effect1_dropShadow_122_651"/>
<feBlend mode="normal" in="SourceGraphic" in2="effect1_dropShadow_122_651" result="shape"/>
</filter>
<filter id="filter3_d_122_651" x="720.217" y="400.16" width="19.6274" height="19.6274" filterUnits="userSpaceOnUse" color-interpolation-filters="sRGB">
<feFlood flood-opacity="0" result="BackgroundImageFix"/>
<feColorMatrix in="SourceAlpha" type="matrix" values="0 0 0 0 0 0 0 0 0 0 0 0 0 0 0 0 0 0 127 0" result="hardAlpha"/>
<feOffset/>
<feGaussianBlur stdDeviation="2.69543"/>
<feComposite in2="hardAlpha" operator="out"/>
<feColorMatrix type="matrix" values="0 0 0 0 1 0 0 0 0 1 0 0 0 0 1 0 0 0 0.45 0"/>
<feBlend mode="normal" in2="BackgroundImageFix" result="effect1_dropShadow_122_651"/>
<feBlend mode="normal" in="SourceGraphic" in2="effect1_dropShadow_122_651" result="shape"/>
</filter>
<filter id="filter4_d_122_651" x="539.99" y="1008.19" width="17.8618" height="17.8618" filterUnits="userSpaceOnUse" color-interpolation-filters="sRGB">
<feFlood flood-opacity="0" result="BackgroundImageFix"/>
<feColorMatrix in="SourceAlpha" type="matrix" values="0 0 0 0 0 0 0 0 0 0 0 0 0 0 0 0 0 0 127 0" result="hardAlpha"/>
<feOffset/>
<feGaussianBlur stdDeviation="2.69543"/>
<feComposite in2="hardAlpha" operator="out"/>
<feColorMatrix type="matrix" values="0 0 0 0 1 0 0 0 0 1 0 0 0 0 1 0 0 0 0.45 0"/>
<feBlend mode="normal" in2="BackgroundImageFix" result="effect1_dropShadow_122_651"/>
<feBlend mode="normal" in="SourceGraphic" in2="effect1_dropShadow_122_651" result="shape"/>
</filter>
<filter id="filter5_d_122_651" x="338.951" y="926.308" width="17.8618" height="17.8618" filterUnits="userSpaceOnUse" color-interpolation-filters="sRGB">
<feFlood flood-opacity="0" result="BackgroundImageFix"/>
<feColorMatrix in="SourceAlpha" type="matrix" values="0 0 0 0 0 0 0 0 0 0 0 0 0 0 0 0 0 0 127 0" result="hardAlpha"/>
<feOffset/>
<feGaussianBlur stdDeviation="2.69543"/>
<feComposite in2="hardAlpha" operator="out"/>
<feColorMatrix type="matrix" values="0 0 0 0 1 0 0 0 0 1 0 0 0 0 1 0 0 0 0.45 0"/>
<feBlend mode="normal" in2="BackgroundImageFix" result="effect1_dropShadow_122_651"/>
<feBlend mode="normal" in="SourceGraphic" in2="effect1_dropShadow_122_651" result="shape"/>
</filter>
<filter id="filter6_d_122_651" x="511.211" y="2.9159" width="17.8938" height="17.8928" filterUnits="userSpaceOnUse" color-interpolation-filters="sRGB">
<feFlood flood-opacity="0" result="BackgroundImageFix"/>
<feColorMatrix in="SourceAlpha" type="matrix" values="0 0 0 0 0 0 0 0 0 0 0 0 0 0 0 0 0 0 127 0" result="hardAlpha"/>
<feOffset/>
<feGaussianBlur stdDeviation="2.70025"/>
<feComposite in2="hardAlpha" operator="out"/>
<feColorMatrix type="matrix" values="0 0 0 0 1 0 0 0 0 1 0 0 0 0 1 0 0 0 0.45 0"/>
<feBlend mode="normal" in2="BackgroundImageFix" result="effect1_dropShadow_122_651"/>
<feBlend mode="normal" in="SourceGraphic" in2="effect1_dropShadow_122_651" result="shape"/>
</filter>
<filter id="filter7_d_122_651" x="626" y="341.15" width="17.8938" height="17.8928" filterUnits="userSpaceOnUse" color-interpolation-filters="sRGB">
<feFlood flood-opacity="0" result="BackgroundImageFix"/>
<feColorMatrix in="SourceAlpha" type="matrix" values="0 0 0 0 0 0 0 0 0 0 0 0 0 0 0 0 0 0 127 0" result="hardAlpha"/>
<feOffset/>
<feGaussianBlur stdDeviation="2.70025"/>
<feComposite in2="hardAlpha" operator="out"/>
<feColorMatrix type="matrix" values="0 0 0 0 1 0 0 0 0 1 0 0 0 0 1 0 0 0 0.45 0"/>
<feBlend mode="normal" in2="BackgroundImageFix" result="effect1_dropShadow_122_651"/>
<feBlend mode="normal" in="SourceGraphic" in2="effect1_dropShadow_122_651" result="shape"/>
</filter>
<filter id="filter8_d_122_651" x="138.961" y="472.15" width="17.8938" height="17.8928" filterUnits="userSpaceOnUse" color-interpolation-filters="sRGB">
<feFlood flood-opacity="0" result="BackgroundImageFix"/>
<feColorMatrix in="SourceAlpha" type="matrix" values="0 0 0 0 0 0 0 0 0 0 0 0 0 0 0 0 0 0 127 0" result="hardAlpha"/>
<feOffset/>
<feGaussianBlur stdDeviation="2.70025"/>
<feComposite in2="hardAlpha" operator="out"/>
<feColorMatrix type="matrix" values="0 0 0 0 1 0 0 0 0 1 0 0 0 0 1 0 0 0 0.45 0"/>
<feBlend mode="normal" in2="BackgroundImageFix" result="effect1_dropShadow_122_651"/>
<feBlend mode="normal" in="SourceGraphic" in2="effect1_dropShadow_122_651" result="shape"/>
</filter>
<filter id="filter9_d_122_651" x="188.961" y="880.15" width="17.8938" height="17.8928" filterUnits="userSpaceOnUse" color-interpolation-filters="sRGB">
<feFlood flood-opacity="0" result="BackgroundImageFix"/>
<feColorMatrix in="SourceAlpha" type="matrix" values="0 0 0 0 0 0 0 0 0 0 0 0 0 0 0 0 0 0 127 0" result="hardAlpha"/>
<feOffset/>
<feGaussianBlur stdDeviation="2.70025"/>
<feComposite in2="hardAlpha" operator="out"/>
<feColorMatrix type="matrix" values="0 0 0 0 1 0 0 0 0 1 0 0 0 0 1 0 0 0 0.45 0"/>
<feBlend mode="normal" in2="BackgroundImageFix" result="effect1_dropShadow_122_651"/>
<feBlend mode="normal" in="SourceGraphic" in2="effect1_dropShadow_122_651" result="shape"/>
</filter>
<filter id="filter10_d_122_651" x="311.805" y="398.299" width="17.8938" height="17.8928" filterUnits="userSpaceOnUse" color-interpolation-filters="sRGB">
<feFlood flood-opacity="0" result="BackgroundImageFix"/>
<feColorMatrix in="SourceAlpha" type="matrix" values="0 0 0 0 0 0 0 0 0 0 0 0 0 0 0 0 0 0 127 0" result="hardAlpha"/>
<feOffset/>
<feGaussianBlur stdDeviation="2.70025"/>
<feComposite in2="hardAlpha" operator="out"/>
<feColorMatrix type="matrix" values="0 0 0 0 1 0 0 0 0 1 0 0 0 0 1 0 0 0 0.45 0"/>
<feBlend mode="normal" in2="BackgroundImageFix" result="effect1_dropShadow_122_651"/>
<feBlend mode="normal" in="SourceGraphic" in2="effect1_dropShadow_122_651" result="shape"/>
</filter>
<filter id="filter11_d_122_651" x="410" y="540.728" width="17.8938" height="17.8928" filterUnits="userSpaceOnUse" color-interpolation-filters="sRGB">
<feFlood flood-opacity="0" result="BackgroundImageFix"/>
<feColorMatrix in="SourceAlpha" type="matrix" values="0 0 0 0 0 0 0 0 0 0 0 0 0 0 0 0 0 0 127 0" result="hardAlpha"/>
<feOffset/>
<feGaussianBlur stdDeviation="2.70025"/>
<feComposite in2="hardAlpha" operator="out"/>
<feColorMatrix type="matrix" values="0 0 0 0 1 0 0 0 0 1 0 0 0 0 1 0 0 0 0.45 0"/>
<feBlend mode="normal" in2="BackgroundImageFix" result="effect1_dropShadow_122_651"/>
<feBlend mode="normal" in="SourceGraphic" in2="effect1_dropShadow_122_651" result="shape"/>
</filter>
<filter id="filter12_d_122_651" x="61.9999" y="651.728" width="17.8938" height="17.8928" filterUnits="userSpaceOnUse" color-interpolation-filters="sRGB">
<feFlood flood-opacity="0" result="BackgroundImageFix"/>
<feColorMatrix in="SourceAlpha" type="matrix" values="0 0 0 0 0 0 0 0 0 0 0 0 0 0 0 0 0 0 127 0" result="hardAlpha"/>
<feOffset/>
<feGaussianBlur stdDeviation="2.70025"/>
<feComposite in2="hardAlpha" operator="out"/>
<feColorMatrix type="matrix" values="0 0 0 0 1 0 0 0 0 1 0 0 0 0 1 0 0 0 0.45 0"/>
<feBlend mode="normal" in2="BackgroundImageFix" result="effect1_dropShadow_122_651"/>
<feBlend mode="normal" in="SourceGraphic" in2="effect1_dropShadow_122_651" result="shape"/>
</filter>
<filter id="filter13_d_122_651" x="112" y="1059.73" width="17.8938" height="17.8928" filterUnits="userSpaceOnUse" color-interpolation-filters="sRGB">
<feFlood flood-opacity="0" result="BackgroundImageFix"/>
<feColorMatrix in="SourceAlpha" type="matrix" values="0 0 0 0 0 0 0 0 0 0 0 0 0 0 0 0 0 0 127 0" result="hardAlpha"/>
<feOffset/>
<feGaussianBlur stdDeviation="2.70025"/>
<feComposite in2="hardAlpha" operator="out"/>
<feColorMatrix type="matrix" values="0 0 0 0 1 0 0 0 0 1 0 0 0 0 1 0 0 0 0.45 0"/>
<feBlend mode="normal" in2="BackgroundImageFix" result="effect1_dropShadow_122_651"/>
<feBlend mode="normal" in="SourceGraphic" in2="effect1_dropShadow_122_651" result="shape"/>
</filter>
<filter id="filter14_d_122_651" x="-0.00011158" y="132.728" width="17.8938" height="17.8928" filterUnits="userSpaceOnUse" color-interpolation-filters="sRGB">
<feFlood flood-opacity="0" result="BackgroundImageFix"/>
<feColorMatrix in="SourceAlpha" type="matrix" values="0 0 0 0 0 0 0 0 0 0 0 0 0 0 0 0 0 0 127 0" result="hardAlpha"/>
<feOffset/>
<feGaussianBlur stdDeviation="2.70025"/>
<feComposite in2="hardAlpha" operator="out"/>
<feColorMatrix type="matrix" values="0 0 0 0 1 0 0 0 0 1 0 0 0 0 1 0 0 0 0.45 0"/>
<feBlend mode="normal" in2="BackgroundImageFix" result="effect1_dropShadow_122_651"/>
<feBlend mode="normal" in="SourceGraphic" in2="effect1_dropShadow_122_651" result="shape"/>
</filter>
<filter id="filter15_d_122_651" x="364.367" y="124.994" width="17.8938" height="17.8928" filterUnits="userSpaceOnUse" color-interpolation-filters="sRGB">
<feFlood flood-opacity="0" result="BackgroundImageFix"/>
<feColorMatrix in="SourceAlpha" type="matrix" values="0 0 0 0 0 0 0 0 0 0 0 0 0 0 0 0 0 0 127 0" result="hardAlpha"/>
<feOffset/>
<feGaussianBlur stdDeviation="2.70025"/>
<feComposite in2="hardAlpha" operator="out"/>
<feColorMatrix type="matrix" values="0 0 0 0 1 0 0 0 0 1 0 0 0 0 1 0 0 0 0.45 0"/>
<feBlend mode="normal" in2="BackgroundImageFix" result="effect1_dropShadow_122_651"/>
<feBlend mode="normal" in="SourceGraphic" in2="effect1_dropShadow_122_651" result="shape"/>
</filter>
<filter id="filter16_d_122_651" x="459.019" y="17.0722" width="16.1242" height="16.1233" filterUnits="userSpaceOnUse" color-interpolation-filters="sRGB">
<feFlood flood-opacity="0" result="BackgroundImageFix"/>
<feColorMatrix in="SourceAlpha" type="matrix" values="0 0 0 0 0 0 0 0 0 0 0 0 0 0 0 0 0 0 127 0" result="hardAlpha"/>
<feOffset/>
<feGaussianBlur stdDeviation="2.70025"/>
<feComposite in2="hardAlpha" operator="out"/>
<feColorMatrix type="matrix" values="0 0 0 0 1 0 0 0 0 1 0 0 0 0 1 0 0 0 0.45 0"/>
<feBlend mode="normal" in2="BackgroundImageFix" result="effect1_dropShadow_122_651"/>
<feBlend mode="normal" in="SourceGraphic" in2="effect1_dropShadow_122_651" result="shape"/>
</filter>
<filter id="filter17_d_122_651" x="394.074" y="597.346" width="16.1242" height="16.1233" filterUnits="userSpaceOnUse" color-interpolation-filters="sRGB">
<feFlood flood-opacity="0" result="BackgroundImageFix"/>
<feColorMatrix in="SourceAlpha" type="matrix" values="0 0 0 0 0 0 0 0 0 0 0 0 0 0 0 0 0 0 127 0" result="hardAlpha"/>
<feOffset/>
<feGaussianBlur stdDeviation="2.70025"/>
<feComposite in2="hardAlpha" operator="out"/>
<feColorMatrix type="matrix" values="0 0 0 0 1 0 0 0 0 1 0 0 0 0 1 0 0 0 0.45 0"/>
<feBlend mode="normal" in2="BackgroundImageFix" result="effect1_dropShadow_122_651"/>
<feBlend mode="normal" in="SourceGraphic" in2="effect1_dropShadow_122_651" result="shape"/>
</filter>
<filter id="filter18_d_122_651" x="467.982" y="1150.16" width="17.8618" height="17.8618" filterUnits="userSpaceOnUse" color-interpolation-filters="sRGB">
<feFlood flood-opacity="0" result="BackgroundImageFix"/>
<feColorMatrix in="SourceAlpha" type="matrix" values="0 0 0 0 0 0 0 0 0 0 0 0 0 0 0 0 0 0 127 0" result="hardAlpha"/>
<feOffset/>
<feGaussianBlur stdDeviation="2.69543"/>
<feComposite in2="hardAlpha" operator="out"/>
<feColorMatrix type="matrix" values="0 0 0 0 1 0 0 0 0 1 0 0 0 0 1 0 0 0 0.45 0"/>
<feBlend mode="normal" in2="BackgroundImageFix" result="effect1_dropShadow_122_651"/>
<feBlend mode="normal" in="SourceGraphic" in2="effect1_dropShadow_122_651" result="shape"/>
</filter>
<filter id="filter19_d_122_651" x="310.405" y="1080.6" width="16.0952" height="16.0962" filterUnits="userSpaceOnUse" color-interpolation-filters="sRGB">
<feFlood flood-opacity="0" result="BackgroundImageFix"/>
<feColorMatrix in="SourceAlpha" type="matrix" values="0 0 0 0 0 0 0 0 0 0 0 0 0 0 0 0 0 0 127 0" result="hardAlpha"/>
<feOffset/>
<feGaussianBlur stdDeviation="2.69543"/>
<feComposite in2="hardAlpha" operator="out"/>
<feColorMatrix type="matrix" values="0 0 0 0 1 0 0 0 0 1 0 0 0 0 1 0 0 0 0.45 0"/>
<feBlend mode="normal" in2="BackgroundImageFix" result="effect1_dropShadow_122_651"/>
<feBlend mode="normal" in="SourceGraphic" in2="effect1_dropShadow_122_651" result="shape"/>
</filter>
<filter id="filter20_d_122_651" x="631.78" y="912.16" width="16.0952" height="16.0962" filterUnits="userSpaceOnUse" color-interpolation-filters="sRGB">
<feFlood flood-opacity="0" result="BackgroundImageFix"/>
<feColorMatrix in="SourceAlpha" type="matrix" values="0 0 0 0 0 0 0 0 0 0 0 0 0 0 0 0 0 0 127 0" result="hardAlpha"/>
<feOffset/>
<feGaussianBlur stdDeviation="2.69543"/>
<feComposite in2="hardAlpha" operator="out"/>
<feColorMatrix type="matrix" values="0 0 0 0 1 0 0 0 0 1 0 0 0 0 1 0 0 0 0.45 0"/>
<feBlend mode="normal" in2="BackgroundImageFix" result="effect1_dropShadow_122_651"/>
<feBlend mode="normal" in="SourceGraphic" in2="effect1_dropShadow_122_651" result="shape"/>
</filter>
<filter id="filter21_d_122_651" x="653.1" y="560.871" width="16.0952" height="16.0962" filterUnits="userSpaceOnUse" color-interpolation-filters="sRGB">
<feFlood flood-opacity="0" result="BackgroundImageFix"/>
<feColorMatrix in="SourceAlpha" type="matrix" values="0 0 0 0 0 0 0 0 0 0 0 0 0 0 0 0 0 0 127 0" result="hardAlpha"/>
<feOffset/>
<feGaussianBlur stdDeviation="2.69543"/>
<feComposite in2="hardAlpha" operator="out"/>
<feColorMatrix type="matrix" values="0 0 0 0 1 0 0 0 0 1 0 0 0 0 1 0 0 0 0.45 0"/>
<feBlend mode="normal" in2="BackgroundImageFix" result="effect1_dropShadow_122_651"/>
<feBlend mode="normal" in="SourceGraphic" in2="effect1_dropShadow_122_651" result="shape"/>
</filter>
<filter id="filter22_d_122_651" x="563.959" y="801.16" width="17.8618" height="17.8618" filterUnits="userSpaceOnUse" color-interpolation-filters="sRGB">
<feFlood flood-opacity="0" result="BackgroundImageFix"/>
<feColorMatrix in="SourceAlpha" type="matrix" values="0 0 0 0 0 0 0 0 0 0 0 0 0 0 0 0 0 0 127 0" result="hardAlpha"/>
<feOffset/>
<feGaussianBlur stdDeviation="2.69543"/>
<feComposite in2="hardAlpha" operator="out"/>
<feColorMatrix type="matrix" values="0 0 0 0 1 0 0 0 0 1 0 0 0 0 1 0 0 0 0.45 0"/>
<feBlend mode="normal" in2="BackgroundImageFix" result="effect1_dropShadow_122_651"/>
<feBlend mode="normal" in="SourceGraphic" in2="effect1_dropShadow_122_651" result="shape"/>
</filter>
<filter id="filter23_d_122_651" x="479" y="529.728" width="17.8938" height="17.8928" filterUnits="userSpaceOnUse" color-interpolation-filters="sRGB">
<feFlood flood-opacity="0" result="BackgroundImageFix"/>
<feColorMatrix in="SourceAlpha" type="matrix" values="0 0 0 0 0 0 0 0 0 0 0 0 0 0 0 0 0 0 127 0" result="hardAlpha"/>
<feOffset/>
<feGaussianBlur stdDeviation="2.70025"/>
<feComposite in2="hardAlpha" operator="out"/>
<feColorMatrix type="matrix" values="0 0 0 0 1 0 0 0 0 1 0 0 0 0 1 0 0 0 0.45 0"/>
<feBlend mode="normal" in2="BackgroundImageFix" result="effect1_dropShadow_122_651"/>
<feBlend mode="normal" in="SourceGraphic" in2="effect1_dropShadow_122_651" result="shape"/>
</filter>
<filter id="filter24_d_122_651" x="463.074" y="586.346" width="16.1242" height="16.1233" filterUnits="userSpaceOnUse" color-interpolation-filters="sRGB">
<feFlood flood-opacity="0" result="BackgroundImageFix"/>
<feColorMatrix in="SourceAlpha" type="matrix" values="0 0 0 0 0 0 0 0 0 0 0 0 0 0 0 0 0 0 127 0" result="hardAlpha"/>
<feOffset/>
<feGaussianBlur stdDeviation="2.70025"/>
<feComposite in2="hardAlpha" operator="out"/>
<feColorMatrix type="matrix" values="0 0 0 0 1 0 0 0 0 1 0 0 0 0 1 0 0 0 0.45 0"/>
<feBlend mode="normal" in2="BackgroundImageFix" result="effect1_dropShadow_122_651"/>
<feBlend mode="normal" in="SourceGraphic" in2="effect1_dropShadow_122_651" result="shape"/>
</filter>
<filter id="filter25_d_122_651" x="407.951" y="915.308" width="17.8618" height="17.8618" filterUnits="userSpaceOnUse" color-interpolation-filters="sRGB">
<feFlood flood-opacity="0" result="BackgroundImageFix"/>
<feColorMatrix in="SourceAlpha" type="matrix" values="0 0 0 0 0 0 0 0 0 0 0 0 0 0 0 0 0 0 127 0" result="hardAlpha"/>
<feOffset/>
<feGaussianBlur stdDeviation="2.69543"/>
<feComposite in2="hardAlpha" operator="out"/>
<feColorMatrix type="matrix" values="0 0 0 0 1 0 0 0 0 1 0 0 0 0 1 0 0 0 0.45 0"/>
<feBlend mode="normal" in2="BackgroundImageFix" result="effect1_dropShadow_122_651"/>
<feBlend mode="normal" in="SourceGraphic" in2="effect1_dropShadow_122_651" result="shape"/>
</filter>
<filter id="filter26_d_122_651" x="379.405" y="1069.6" width="16.0952" height="16.0962" filterUnits="userSpaceOnUse" color-interpolation-filters="sRGB">
<feFlood flood-opacity="0" result="BackgroundImageFix"/>
<feColorMatrix in="SourceAlpha" type="matrix" values="0 0 0 0 0 0 0 0 0 0 0 0 0 0 0 0 0 0 127 0" result="hardAlpha"/>
<feOffset/>
<feGaussianBlur stdDeviation="2.69543"/>
<feComposite in2="hardAlpha" operator="out"/>
<feColorMatrix type="matrix" values="0 0 0 0 1 0 0 0 0 1 0 0 0 0 1 0 0 0 0.45 0"/>
<feBlend mode="normal" in2="BackgroundImageFix" result="effect1_dropShadow_122_651"/>
<feBlend mode="normal" in="SourceGraphic" in2="effect1_dropShadow_122_651" result="shape"/>
</filter>
</defs>
</svg>
