<svg width="73" height="18" viewBox="0 0 73 18" fill="none" xmlns="http://www.w3.org/2000/svg">
<path d="M0.000403404 17.04V3.8147e-05H3.6484V16.056L1.6324 13.968H11.4964V17.04H0.000403404ZM18.4913 17.328C17.1793 17.328 16.0353 17.056 15.0593 16.512C14.0833 15.952 13.3233 15.168 12.7793 14.16C12.2353 13.152 11.9633 11.968 11.9633 10.608C11.9633 9.24804 12.2353 8.07204 12.7793 7.08004C13.3233 6.07204 14.0833 5.28804 15.0593 4.72804C16.0353 4.16804 17.1793 3.88804 18.4913 3.88804C19.8033 3.88804 20.9473 4.16804 21.9233 4.72804C22.8993 5.28804 23.6593 6.07204 24.2033 7.08004C24.7473 8.07204 25.0193 9.24804 25.0193 10.608C25.0193 11.968 24.7473 13.152 24.2033 14.16C23.6593 15.168 22.8993 15.952 21.9233 16.512C20.9473 17.056 19.8033 17.328 18.4913 17.328ZM18.4913 14.568C19.3873 14.568 20.0833 14.224 20.5793 13.536C21.0753 12.832 21.3233 11.856 21.3233 10.608C21.3233 9.36004 21.0753 8.39204 20.5793 7.70404C20.0833 7.00004 19.3873 6.64804 18.4913 6.64804C17.5953 6.64804 16.8993 7.00004 16.4033 7.70404C15.9073 8.39204 15.6593 9.36004 15.6593 10.608C15.6593 11.856 15.9073 12.832 16.4033 13.536C16.8993 14.224 17.5953 14.568 18.4913 14.568ZM32.514 17.328C31.202 17.328 30.058 17.056 29.082 16.512C28.106 15.952 27.346 15.168 26.802 14.16C26.258 13.152 25.986 11.968 25.986 10.608C25.986 9.24804 26.258 8.07204 26.802 7.08004C27.346 6.07204 28.106 5.28804 29.082 4.72804C30.058 4.16804 31.202 3.88804 32.514 3.88804C33.65 3.88804 34.666 4.08804 35.562 4.48804C36.474 4.88804 37.21 5.46404 37.77 6.21604C38.33 6.96804 38.674 7.87204 38.802 8.92804L35.082 9.09604C34.97 8.29604 34.682 7.69604 34.218 7.29604C33.77 6.88004 33.202 6.67204 32.514 6.67204C31.618 6.67204 30.922 7.01604 30.426 7.70404C29.93 8.39204 29.682 9.36004 29.682 10.608C29.682 11.856 29.93 12.832 30.426 13.536C30.922 14.224 31.618 14.568 32.514 14.568C33.202 14.568 33.778 14.36 34.242 13.944C34.706 13.512 34.986 12.864 35.082 12L38.802 12.144C38.69 13.2 38.354 14.12 37.794 14.904C37.25 15.672 36.522 16.272 35.61 16.704C34.714 17.12 33.682 17.328 32.514 17.328ZM40.2126 17.04V3.8147e-05H43.8126V9.45604L48.5886 4.17604H52.9086L47.9166 9.48004L53.0526 17.04H49.1166L45.5886 11.52L43.8126 13.416V17.04H40.2126ZM54.1695 17.04V3.8147e-05H57.8175V17.04H54.1695ZM60.758 17.04V4.17604H63.998L64.142 7.94404L63.686 7.82404C63.814 6.86404 64.07 6.09604 64.454 5.52004C64.854 4.94404 65.35 4.52804 65.942 4.27204C66.534 4.01604 67.182 3.88804 67.886 3.88804C68.814 3.88804 69.598 4.08804 70.238 4.48804C70.894 4.88804 71.39 5.45604 71.726 6.19204C72.078 6.91204 72.254 7.76804 72.254 8.76004V17.04H68.654V9.96004C68.654 9.27204 68.598 8.68804 68.486 8.20804C68.374 7.72804 68.174 7.36804 67.886 7.12804C67.598 6.87204 67.198 6.74404 66.686 6.74404C65.934 6.74404 65.358 7.02404 64.958 7.58404C64.558 8.12804 64.358 8.92004 64.358 9.96004V17.04H60.758Z" fill="white"/>
</svg>
