<svg width="122" height="50" viewBox="0 0 122 50" fill="none" xmlns="http://www.w3.org/2000/svg">
<rect width="50" height="50" rx="25" transform="matrix(-1 0 0 1 50 0)" fill="black"/>
<rect x="-0.5" y="0.5" width="49" height="49" rx="24.5" transform="matrix(-1 0 0 1 49 0)" stroke="white" stroke-opacity="0.22"/>
<path fill-rule="evenodd" clip-rule="evenodd" d="M33 32.7169V33.8584C33 34.4886 32.488 35 31.8571 35H18.1429C17.512 35 17 34.4886 17 33.8584V32.7169V32.6986C17 29.2443 20.952 27 25 27C29.048 27 33 29.2454 33 32.6986" fill="white"/>
<path d="M33 32.7169V33.8584C33 34.4886 32.488 35 31.8571 35H18.1429C17.512 35 17 34.4886 17 33.8584V32.7169V32.6986C17 29.2443 20.952 27 25 27C29.048 27 33 29.2454 33 32.6986" stroke="white" stroke-width="1.5" stroke-linecap="round" stroke-linejoin="round"/>
<path fill-rule="evenodd" clip-rule="evenodd" d="M27.8284 16.1716C29.3905 17.7337 29.3905 20.2663 27.8284 21.8284C26.2663 23.3905 23.7337 23.3905 22.1716 21.8284C20.6095 20.2663 20.6095 17.7337 22.1716 16.1716C23.7337 14.6095 26.2663 14.6095 27.8284 16.1716Z" fill="white"/>
<path d="M27.8284 16.1716C29.3905 17.7337 29.3905 20.2663 27.8284 21.8284C26.2663 23.3905 23.7337 23.3905 22.1716 21.8284C20.6095 20.2663 20.6095 17.7337 22.1716 16.1716C23.7337 14.6095 26.2663 14.6095 27.8284 16.1716" stroke="white" stroke-width="1.5" stroke-linecap="round" stroke-linejoin="round"/>
<rect width="50" height="50" rx="25" transform="matrix(-1 0 0 1 122 0)" fill="black"/>
<rect x="-0.5" y="0.5" width="49" height="49" rx="24.5" transform="matrix(-1 0 0 1 121 0)" stroke="white" stroke-opacity="0.22"/>
<path fill-rule="evenodd" clip-rule="evenodd" d="M105 32.7169V33.8584C105 34.4886 104.488 35 103.857 35H90.1429C89.512 35 89 34.4886 89 33.8584V32.7169V32.6986C89 29.2443 92.952 27 97 27C101.048 27 105 29.2454 105 32.6986" fill="white"/>
<path d="M105 32.7169V33.8584C105 34.4886 104.488 35 103.857 35H90.1429C89.512 35 89 34.4886 89 33.8584V32.7169V32.6986C89 29.2443 92.952 27 97 27C101.048 27 105 29.2454 105 32.6986" stroke="white" stroke-width="1.5" stroke-linecap="round" stroke-linejoin="round"/>
<path fill-rule="evenodd" clip-rule="evenodd" d="M99.8284 16.1716C101.391 17.7337 101.391 20.2663 99.8284 21.8284C98.2663 23.3905 95.7337 23.3905 94.1716 21.8284C92.6095 20.2663 92.6095 17.7337 94.1716 16.1716C95.7337 14.6095 98.2663 14.6095 99.8284 16.1716Z" fill="white"/>
<path d="M99.8284 16.1716C101.391 17.7337 101.391 20.2663 99.8284 21.8284C98.2663 23.3905 95.7337 23.3905 94.1716 21.8284C92.6095 20.2663 92.6095 17.7337 94.1716 16.1716C95.7337 14.6095 98.2663 14.6095 99.8284 16.1716" stroke="white" stroke-width="1.5" stroke-linecap="round" stroke-linejoin="round"/>
<rect x="49" y="25" width="24" height="1" fill="#383838"/>
</svg>
