<svg preserveAspectRatio="none" width="100%" height="100%" overflow="visible" style="display: block;" viewBox="0 0 17.4253 14.6075" fill="none" xmlns="http://www.w3.org/2000/svg">
<g id="Group 1073713752">
<path id="path2993" d="M6.54223 13.7316C6.02159 13.7316 6.11504 13.5314 5.92814 13.0374L4.40625 8.01784L13.858 2.11719L14.966 2.41088L14.0449 4.92067L6.54223 13.7316Z" fill="var(--fill-0, #DEDEDE)"/>
<path id="path2989" d="M6.54688 13.7253C6.9474 13.7253 7.12096 13.5383 7.34793 13.3247C7.69505 12.991 12.1542 8.65192 12.1542 8.65192L9.41731 7.98438L6.88065 9.58648L6.54688 13.5917V13.7253Z" fill="var(--fill-0, #D0D0D0)"/>
<path id="path2991" d="M6.81879 9.64388L13.2806 14.4101C14.0149 14.8107 14.5489 14.6104 14.7359 13.7292L17.366 1.33963C17.633 0.258208 16.9521 -0.222423 16.2445 0.0979981L0.810893 6.05249C-0.243826 6.47972 -0.230475 7.06716 0.623981 7.32082L4.58919 8.56246L13.7612 2.78152C14.1885 2.51451 14.589 2.66137 14.2686 2.95509L6.81879 9.64388Z" fill="url(#paint0_linear_664_2792)"/>
</g>
<defs>
<linearGradient id="paint0_linear_664_2792" x1="10.6893" y1="6.88759" x2="14.0271" y2="12.2279" gradientUnits="userSpaceOnUse">
<stop stop-color="#EDEDED"/>
<stop offset="1" stop-color="white"/>
</linearGradient>
</defs>
</svg>
