<svg preserveAspectRatio="none" width="100%" height="100%" overflow="visible" style="display: block;" viewBox="0 0 11.8022 11.8022" fill="none" xmlns="http://www.w3.org/2000/svg">
<g id="Group">
<g id="Path">
<path fill-rule="evenodd" clip-rule="evenodd" d="M4.67725 8.84375V9.09553C4.67725 9.42019 4.80628 9.73154 5.03595 9.96102C5.26561 10.1905 5.57706 10.3193 5.90173 10.319V10.319C6.22643 10.3192 6.53789 10.1903 6.76753 9.9607C6.99718 9.73115 7.12621 9.41975 7.12621 9.09504V8.84375" fill="var(--fill-0, white)"/>
<path d="M4.67725 8.84375V9.09553C4.67725 9.42019 4.80628 9.73154 5.03595 9.96102C5.26561 10.1905 5.57706 10.3193 5.90173 10.319V10.319C6.22643 10.3192 6.53789 10.1903 6.76753 9.9607C6.99718 9.73115 7.12621 9.41975 7.12621 9.09504V8.84375" stroke="var(--stroke-0, white)" stroke-width="0.737331" stroke-linecap="round" stroke-linejoin="round"/>
</g>
<path id="Path_2" fill-rule="evenodd" clip-rule="evenodd" d="M8.82243 8.84513C9.38001 8.84513 9.83201 8.39313 9.83201 7.83555V7.83555C9.83178 7.55231 9.71932 7.2807 9.51925 7.08021L8.84849 6.40994V4.4193C8.84849 2.78976 7.52748 1.46875 5.89794 1.46875V1.46875C4.26839 1.46875 2.94739 2.78976 2.94739 4.4193V6.40994L2.27663 7.08021C2.07656 7.2807 1.96409 7.55231 1.96387 7.83555V7.83555C1.96387 8.10331 2.07023 8.3601 2.25957 8.54943C2.4489 8.73877 2.70569 8.84513 2.97345 8.84513H8.82243Z" fill="var(--fill-0, white)" stroke="var(--stroke-0, white)" stroke-width="0.737331" stroke-linecap="round" stroke-linejoin="round"/>
<g id="Path_3">
</g>
</g>
</svg>
