<svg preserveAspectRatio="none" width="100%" height="100%" overflow="visible" style="display: block;" viewBox="0 0 11.8022 11.8022" fill="none" xmlns="http://www.w3.org/2000/svg">
<g id="Group">
<g id="Path">
</g>
<path id="Subtract" d="M5.9126 0.865234C8.56028 0.865498 10.7075 3.01241 10.7075 5.66016C10.7075 8.30792 8.5603 10.4548 5.9126 10.4551C3.26469 10.4551 1.1167 8.30807 1.1167 5.66016C1.11673 3.01227 3.26471 0.865261 5.9126 0.865234ZM5.61475 2.82617C5.41114 2.82617 5.24561 2.9917 5.24561 3.19531V5.9502C5.24561 6.1538 5.41114 6.31934 5.61475 6.31934C5.62083 6.31925 5.62729 6.31769 5.6333 6.31738H7.90381C8.1067 6.31663 8.27186 6.15226 8.27197 5.94922C8.27197 5.74608 8.10677 5.58084 7.90381 5.58008H5.98291V3.19531C5.98291 2.99194 5.81803 2.82655 5.61475 2.82617Z" fill="var(--fill-0, white)"/>
</g>
</svg>
