<svg preserveAspectRatio="xMidYMid meet" width="51" height="51" overflow="visible" style="display: block;" viewBox="0 0 51.0402 51.0402" fill="none" xmlns="http://www.w3.org/2000/svg">
<g id="Frame 2147224117">
<g id="Vector" filter="url(#filter0_d_676_2828)">
<path d="M23.541 28.8749C23.4554 28.5432 23.2825 28.2404 23.0403 27.9982C22.7981 27.756 22.4953 27.5831 22.1636 27.4975L16.2832 25.9811C16.1829 25.9527 16.0946 25.8922 16.0317 25.809C15.9688 25.7258 15.9348 25.6244 15.9348 25.5201C15.9348 25.4158 15.9688 25.3144 16.0317 25.2312C16.0946 25.148 16.1829 25.0875 16.2832 25.0591L22.1636 23.5418C22.4952 23.4563 22.7979 23.2835 23.0401 23.0414C23.2823 22.7994 23.4553 22.4969 23.541 22.1653L25.0574 16.2849C25.0855 16.1842 25.1459 16.0954 25.2292 16.0322C25.3126 15.969 25.4143 15.9348 25.5189 15.9348C25.6235 15.9348 25.7252 15.969 25.8085 16.0322C25.8918 16.0954 25.9522 16.1842 25.9804 16.2849L27.4958 22.1653C27.5814 22.497 27.7543 22.7998 27.9965 23.042C28.2387 23.2842 28.5415 23.4571 28.8732 23.5427L34.7536 25.0581C34.8547 25.086 34.9439 25.1463 35.0074 25.2298C35.071 25.3132 35.1054 25.4152 35.1054 25.5201C35.1054 25.625 35.071 25.727 35.0074 25.8105C34.9439 25.8939 34.8547 25.9542 34.7536 25.9821L28.8732 27.4975C28.5415 27.5831 28.2387 27.756 27.9965 27.9982C27.7543 28.2404 27.5814 28.5432 27.4958 28.8749L25.9794 34.7553C25.9512 34.856 25.8909 34.9448 25.8076 35.008C25.7242 35.0712 25.6225 35.1054 25.5179 35.1054C25.4133 35.1054 25.3116 35.0712 25.2283 35.008C25.1449 34.9448 25.0846 34.856 25.0564 34.7553L23.541 28.8749Z" fill="var(--fill-0, white)"/>
<path d="M23.541 28.8749C23.4554 28.5432 23.2825 28.2404 23.0403 27.9982C22.7981 27.756 22.4953 27.5831 22.1636 27.4975L16.2832 25.9811C16.1829 25.9527 16.0946 25.8922 16.0317 25.809C15.9688 25.7258 15.9348 25.6244 15.9348 25.5201C15.9348 25.4158 15.9688 25.3144 16.0317 25.2312C16.0946 25.148 16.1829 25.0875 16.2832 25.0591L22.1636 23.5418C22.4952 23.4563 22.7979 23.2835 23.0401 23.0414C23.2823 22.7994 23.4553 22.4969 23.541 22.1653L25.0574 16.2849C25.0855 16.1842 25.1459 16.0954 25.2292 16.0322C25.3126 15.969 25.4143 15.9348 25.5189 15.9348C25.6235 15.9348 25.7252 15.969 25.8085 16.0322C25.8918 16.0954 25.9522 16.1842 25.9804 16.2849L27.4958 22.1653C27.5814 22.497 27.7543 22.7998 27.9965 23.042C28.2387 23.2842 28.5415 23.4571 28.8732 23.5427L34.7536 25.0581C34.8547 25.086 34.9439 25.1463 35.0074 25.2298C35.071 25.3132 35.1054 25.4152 35.1054 25.5201C35.1054 25.625 35.071 25.727 35.0074 25.8105C34.9439 25.8939 34.8547 25.9542 34.7536 25.9821L28.8732 27.4975C28.5415 27.5831 28.2387 27.756 27.9965 27.9982C27.7543 28.2404 27.5814 28.5432 27.4958 28.8749L25.9794 34.7553C25.9512 34.856 25.8909 34.9448 25.8076 35.008C25.7242 35.0712 25.6225 35.1054 25.5179 35.1054C25.4133 35.1054 25.3116 35.0712 25.2283 35.008C25.1449 34.9448 25.0846 34.856 25.0564 34.7553L23.541 28.8749Z" stroke="var(--stroke-0, white)" stroke-width="2.45133" stroke-linecap="round" stroke-linejoin="round"/>
</g>
</g>
<defs>
<filter id="filter0_d_676_2828" x="0" y="-4.76837e-07" width="51.0402" height="51.0402" filterUnits="userSpaceOnUse" color-interpolation-filters="sRGB">
<feFlood flood-opacity="0" result="BackgroundImageFix"/>
<feColorMatrix in="SourceAlpha" type="matrix" values="0 0 0 0 0 0 0 0 0 0 0 0 0 0 0 0 0 0 127 0" result="hardAlpha"/>
<feOffset/>
<feGaussianBlur stdDeviation="7.35457"/>
<feComposite in2="hardAlpha" operator="out"/>
<feColorMatrix type="matrix" values="0 0 0 0 1 0 0 0 0 1 0 0 0 0 1 0 0 0 0.45 0"/>
<feBlend mode="normal" in2="BackgroundImageFix" result="effect1_dropShadow_676_2828"/>
<feBlend mode="normal" in="SourceGraphic" in2="effect1_dropShadow_676_2828" result="shape"/>
</filter>
</defs>
</svg>
