<svg preserveAspectRatio="none" width="100%" height="100%" overflow="visible" style="display: block;" viewBox="0 0 15.7188 13.1768" fill="none" xmlns="http://www.w3.org/2000/svg">
<g id="Group 1073713752">
<g id="path2993">
</g>
<path id="path2989" d="M5.90479 12.374C6.26609 12.374 6.42265 12.2054 6.62739 12.0127C6.94052 11.7116 10.963 7.79748 10.963 7.79748L8.49412 7.19531L6.20587 8.64052L5.90479 12.2535V12.374Z" fill="var(--fill-0, white)"/>
<path id="path2991" d="M6.151 8.69925L11.98 12.9988C12.6424 13.3601 13.1241 13.1794 13.2927 12.3845L15.6653 1.20825C15.9062 0.232735 15.2919 -0.200827 14.6536 0.0882149L0.731468 5.45958C-0.219961 5.84497 -0.207918 6.37488 0.562861 6.6037L4.13975 7.72374L12.4136 2.50894C12.799 2.26807 13.1603 2.40055 12.8712 2.66551L6.151 8.69925Z" fill="var(--fill-0, white)"/>
</g>
</svg>
