<svg width="203" height="30" viewBox="0 0 203 30" fill="none" xmlns="http://www.w3.org/2000/svg">
<g opacity="0.9">
<path d="M11.5613 14.543H18.5213V25.9304C16.1972 26.4008 14.4174 26.6391 12.4664 26.6391C4.83363 26.6391 2.14258 22.2711 2.14258 15.0806C2.14258 7.35263 5.87335 2.98462 13.3104 2.98462C14.2523 2.98462 16.0321 3.05182 18.2522 3.38782V10.676H16.6376L15.7263 7.89023C14.8517 5.23888 13.812 3.92543 12.1606 3.92543C9.30444 3.92543 7.78767 7.78638 7.78767 15.0134C7.78767 22.2711 8.39316 25.6983 12.1239 25.6983C12.6316 25.6983 13.2309 25.6311 13.8058 25.4661V16.9928L11.5551 15.4472V14.543H11.5613ZM140.941 18.997C140.941 23.5666 137.815 26.1874 132.299 26.1874C130.788 26.1874 128.568 25.9552 126.482 25.6131V16.6816H128.097L128.77 18.7954C130.28 23.6643 131.357 25.2771 133.277 25.2771C135.296 25.2771 136.739 23.4994 136.739 21.1474C136.739 19.2352 135.834 17.8912 133.883 16.8466L130.519 15.0322C127.926 13.6576 126.513 11.5072 126.513 8.88642C126.513 4.92161 129.773 2.53906 135.124 2.53906C136.335 2.53906 137.748 2.64292 139.999 2.94226V10.2304H138.384L137.479 7.44467C136.568 4.48787 135.595 3.41266 133.815 3.41266C131.828 3.41266 130.653 4.68947 130.653 6.53441C130.653 8.17776 131.565 9.35682 133.345 10.3648L136.739 12.277C139.595 13.8898 140.941 16.0402 140.941 18.997ZM155.809 24.2752L156.481 25.2832V25.7903H151.338L151.099 23.8415C150.561 25.3199 149.148 26.1935 147.332 26.1935C144.641 26.1935 142.959 24.5135 142.959 21.7583C142.959 19.0703 144.47 17.2925 149.112 15.4781L151.093 14.7084V12.1914C151.093 9.97384 150.69 9.06969 149.448 9.06969C148.439 9.06969 147.87 9.60729 146.892 12.057L145.785 14.8H144.274V9.32016C146.255 8.71536 148.243 8.31216 149.956 8.31216C153.754 8.31216 155.809 10.1266 155.809 13.4194V24.2752ZM35.1997 17.7014C35.1997 23.4135 32.1417 26.6391 28.203 26.6391C24.2704 26.6391 21.2123 23.4135 21.2123 17.7014C21.2123 11.9894 24.2704 8.76383 28.2091 8.76383C32.1417 8.76383 35.1997 11.9894 35.1997 17.7014ZM151.099 21.4528V15.6431L150.463 15.9119C148.476 16.7183 147.736 18.5327 147.736 21.184C147.736 23.1695 148.206 24.3058 149.313 24.3058C150.42 24.3058 151.099 23.2306 151.099 21.4528ZM30.2579 17.7014C30.2579 11.2502 29.7197 9.53969 28.2091 9.53969C26.6984 9.53969 26.1602 11.2502 26.1602 17.7014C26.1602 24.1527 26.6984 25.8632 28.2091 25.8632C29.7197 25.8632 30.2579 24.1527 30.2579 17.7014ZM169.698 21.6178L170.304 21.9232C169.227 25.0144 167.851 26.1874 165.191 26.1874C160.854 26.1874 158.432 22.9312 158.432 17.2498C158.432 11.5744 161.258 8.31216 165.863 8.31216C167.105 8.31216 168.756 8.51376 170.169 9.08191V14.7939H168.591L167.955 12.6435C167.111 9.79056 166.646 9.05136 165.802 9.05136C164.457 9.05136 163.38 10.7986 163.38 17.4514C163.38 22.7907 164.188 24.7395 166.237 24.7395C167.613 24.7456 168.787 23.872 169.698 21.6178ZM43.4074 26.2359H37.3525V25.7349L38.0253 24.7269V5.97808L37.3525 4.97008V4.46303L42.7346 4.05983V24.7208L43.4074 25.7288V26.2359ZM51.6824 26.6391C47.9822 26.6391 45.7621 23.2791 45.7621 17.5365C45.7621 11.8245 48.08 8.76994 51.6457 8.76994C53.4622 8.76994 54.4713 9.47249 54.9055 10.8837V5.97808L54.2328 4.97008V4.46303L59.6149 4.05983V24.7208L60.2876 25.7288V26.2297H55.511L55.1441 23.6761C54.612 25.8632 53.6028 26.6391 51.6824 26.6391ZM186.04 24.2752L186.713 25.2832V25.7903H180.658V25.2832L181.331 24.2752V12.1792C181.331 10.7375 180.897 9.86387 179.851 9.86387C178.603 9.86387 177.698 10.9085 177.698 12.9551V24.2752L178.371 25.2832V25.7903H172.316V25.2832L172.989 24.2752V5.52641L172.316 4.51841V4.01746L177.698 3.61426V10.5664C178.303 9.12467 179.68 8.31827 181.631 8.31827C184.389 8.31827 186.034 10.0655 186.034 13.456V24.2752H186.04ZM50.7099 17.5976C50.7099 23.6456 51.2482 25.4905 52.7282 25.4905C54.5753 25.4905 54.9116 22.8392 54.9116 17.5304C54.9116 12.3926 54.5447 9.83903 52.7588 9.83903C51.2481 9.83903 50.7099 11.6534 50.7099 17.5976ZM84.4765 24.7208L85.1493 25.7288V26.2297H79.0944V25.7288L79.7672 24.7208V12.2582C79.7672 11.0486 79.3635 10.3094 78.4217 10.3094C77.2474 10.3094 76.3055 11.3541 76.3055 13.364V24.7208L76.9783 25.7288V26.2297H70.9234V25.7288L71.5962 24.7208V12.2582C71.5962 11.0486 71.1925 10.3094 70.2506 10.3094C69.0764 10.3094 68.1345 11.3541 68.1345 13.364V24.7208L68.8073 25.7288V26.2297H62.7524V25.7288L63.4252 24.7208V11.0486L62.7524 10.2422V9.74129L67.5963 9.16703H67.9999L68.1345 11.0486C68.7033 9.57023 70.1161 8.76383 72.0365 8.76383C74.0854 8.76383 75.4309 9.77184 76.0364 11.5862C76.5379 9.83904 78.122 8.76383 80.1403 8.76383C82.7946 8.76383 84.4765 10.511 84.4765 13.9016V24.7208ZM200.743 20.848C200.743 23.7682 198.859 26.1874 194.321 26.1874C193.147 26.1874 191.563 26.053 189.11 25.6131V19.3696H190.487L190.921 20.7136C191.997 24.1408 193.037 25.4176 194.688 25.4176C196.236 25.4176 197.245 24.3058 197.245 22.5952C197.245 21.184 196.535 20.2127 194.86 19.3024L191.967 17.7568C190.12 16.7488 189.11 15.1727 189.11 13.2239C189.11 10.1693 191.502 8.31827 195.465 8.31827C196.609 8.31827 198.089 8.48322 199.703 8.81922V13.7248H198.327L197.618 11.941C196.811 9.79056 196.04 9.08802 194.762 9.08802C193.386 9.08802 192.578 9.89442 192.578 11.2384C192.578 12.3808 193.251 13.1506 194.896 14.0914L197.752 15.7042C199.697 16.816 200.743 18.3922 200.743 20.848ZM99.9501 24.7208L100.623 25.7288V26.2297H95.4792L95.2468 24.2809C94.7086 25.7593 93.2958 26.6329 91.4794 26.6329C88.7883 26.6329 87.1064 24.9529 87.1064 22.1977C87.1064 19.5097 88.6171 17.732 93.2591 15.9176L95.2407 15.1478V12.6309C95.2407 10.4133 94.8371 9.50914 93.5955 9.50914C92.5864 9.50914 92.0176 10.0467 91.039 12.4965L89.932 15.2517H88.4152V9.77794C90.4029 9.17314 92.3845 8.76994 94.097 8.76994C97.8951 8.76994 99.9501 10.5843 99.9501 13.8772V24.7208ZM95.2407 21.8984V16.0886L94.6047 16.3574C92.6231 17.1638 91.883 18.9782 91.883 21.6296C91.883 23.6151 92.354 24.7575 93.461 24.7575C94.568 24.7575 95.2407 23.6823 95.2407 21.8984ZM117.234 25.7288V26.2297H111.179V25.7288L111.852 24.7208V12.6248C111.852 11.1769 111.418 10.3094 110.372 10.3094C109.124 10.3094 108.219 11.3541 108.219 13.4006V24.7208L108.892 25.7288V26.2297H102.837V25.7288L103.51 24.7208V11.0486L102.837 10.2422V9.74129L107.681 9.16703H108.084L108.219 11.0486C108.788 9.57023 110.17 8.76383 112.152 8.76383C114.91 8.76383 116.555 10.511 116.555 13.9016V24.7208L117.234 25.7288Z" fill="white"/>
</g>
</svg>
